<svg width="64" height="48" viewBox="0 0 64 48" fill="none" xmlns="http://www.w3.org/2000/svg">
<path fill-rule="evenodd" clip-rule="evenodd" d="M59.3073 3.7105H4.30746C3.18544 3.7105 2.10922 4.15551 1.31485 4.94792C0.520483 5.74033 0.0728271 6.81546 0.0700684 7.93748V39.6904C0.0700683 40.2468 0.179683 40.7977 0.39265 41.3118C0.605617 41.8258 0.917765 42.2928 1.31126 42.6862C1.70476 43.0795 2.1719 43.3915 2.686 43.6043C3.20009 43.8171 3.75107 43.9265 4.30746 43.9263H59.3073C59.8662 43.9306 60.4205 43.8243 60.9381 43.6133C61.4557 43.4023 61.9265 43.091 62.3232 42.6972C62.7199 42.3034 63.0347 41.835 63.2494 41.3189C63.4642 40.8028 63.5747 40.2494 63.5744 39.6904V7.93748C63.5719 7.37971 63.4595 6.82792 63.2437 6.3136C63.0278 5.79928 62.7128 5.33253 62.3165 4.94C61.9203 4.54747 61.4505 4.23685 60.9342 4.02589C60.4179 3.81493 59.865 3.70776 59.3073 3.7105Z" fill="#227FBB"/>
<path fill-rule="evenodd" clip-rule="evenodd" d="M5.79584 18.1582L4.57537 15.1815L3.35491 18.1582H5.79584ZM32.716 16.9779C32.4404 17.1074 32.1347 17.1588 31.8319 17.1268H29.6589V15.4687H31.823C32.1103 15.4434 32.4005 15.4911 32.6654 15.6086C32.7876 15.6664 32.8892 15.76 32.9568 15.877C33.0244 15.994 33.0546 16.1289 33.0435 16.2635C33.0523 16.4047 33.0228 16.5456 32.9581 16.6714C32.8933 16.7972 32.7958 16.9031 32.6758 16.9779H32.716ZM48.1847 18.1582L46.9538 15.1815L45.714 18.1582H48.1847ZM19.3504 21.3835H17.5138V15.5283L14.9538 21.3835H13.3568L10.7566 15.5283V21.3835H7.12495L6.4403 19.7166H2.71937L2.05556 21.3835H0.0700684L3.28495 13.8911H5.94467L9.0003 20.9861V13.8911H11.9086L14.2498 18.9619L16.3737 13.8911H19.3504V21.3835ZM26.6435 21.3835H20.69V13.8911H26.6435V15.4494H22.4656V16.8678H26.5437V18.3964H22.4656V19.8446H26.6435V21.3925V21.3835ZM35.0468 15.9257C35.0562 16.3426 34.9427 16.753 34.7203 17.1059C34.498 17.4587 34.1767 17.7382 33.7966 17.9097C34.1412 18.0365 34.4462 18.2522 34.6807 18.5348C34.9248 18.9471 35.026 19.4278 34.9679 19.9041V21.3731H33.1715V20.4399C33.2474 19.9364 33.1498 19.422 32.8946 18.9813C32.5185 18.7109 32.0521 18.5973 31.5938 18.6643H29.6589V21.3835H27.8535V13.8911H31.951C32.6907 13.8211 33.4364 13.9432 34.1151 14.2483C34.4084 14.4093 34.6493 14.6511 34.8092 14.945C34.9691 15.239 35.0412 15.5726 35.017 15.9063L35.0468 15.9257ZM37.9045 21.3835H36.0887V13.8911H37.9045V21.3835ZM59.0394 21.3835H56.5091L53.1261 15.7768V21.3835H49.4944L48.7994 19.7166H45.0889L44.4146 21.3835H42.3205C41.3877 21.4424 40.4668 21.148 39.7411 20.559C39.3865 20.1776 39.115 19.7266 38.9441 19.2346C38.7732 18.7426 38.7066 18.2204 38.7484 17.7013C38.7111 17.1734 38.7798 16.6434 38.9503 16.1425C39.1207 15.6415 39.3896 15.1797 39.7411 14.7841C40.111 14.4604 40.5423 14.2146 41.0092 14.0612C41.4761 13.9077 41.9692 13.8499 42.4589 13.8911H44.1854V15.4896H42.4887C42.2417 15.4603 41.9913 15.4851 41.7549 15.5622C41.5185 15.6393 41.3016 15.7669 41.1194 15.9361C40.7437 16.4185 40.5602 17.023 40.6044 17.6328C40.5493 18.255 40.7264 18.8771 41.1 19.3787C41.2711 19.5215 41.4687 19.6292 41.6814 19.6956C41.8941 19.762 42.1179 19.7858 42.3398 19.7657H43.1436L45.6544 13.8911H48.3335L51.3103 20.9564V13.8911H54.0295L57.164 19.1004V13.8911H58.9902V21.3627L59.0394 21.3835ZM0.0700684 22.8213H3.11677L3.81184 21.1647H5.34932L6.02356 22.8213H12.0276V21.5815L12.5724 22.8213H15.689L16.2249 21.5324V22.8213H31.1086V20.1229H31.3958C31.5938 20.1229 31.6533 20.1229 31.6533 20.4905V22.8213H39.3631V22.1873C40.2531 22.6293 41.2384 22.8466 42.2312 22.8213H45.4758L46.1709 21.1647H47.698L48.4228 22.8213H54.6442V21.2734L55.637 22.8213H60.5977V12.4325H55.637V13.6633L54.9419 12.4325H49.8918V13.6633L49.2459 12.4325H42.38C41.353 12.3858 40.3304 12.5939 39.4033 13.0382V12.4325H34.6509V13.0382C34.0832 12.6046 33.3785 12.3896 32.6654 12.4325H15.3021L14.1396 15.122L12.9683 12.4325H7.49109V13.6633L6.88532 12.4325H2.23416L0.0700684 17.3843V22.8213ZM63.5744 28.3193H60.3194C60.0699 28.2936 59.8184 28.3418 59.596 28.4578C59.5083 28.5152 59.4378 28.5953 59.3922 28.6897C59.3466 28.7841 59.3275 28.8892 59.337 28.9936C59.3331 29.1155 59.3686 29.2354 59.4383 29.3354C59.5081 29.4355 59.6083 29.5103 59.724 29.5487C59.9488 29.6202 60.1854 29.65 60.4191 29.638H61.4118C62.1263 29.583 62.8347 29.8003 63.3958 30.2438C63.4623 30.2968 63.5192 30.3607 63.564 30.4328L63.5744 28.3193ZM63.5744 33.2801C63.2836 33.6319 62.9104 33.9066 62.488 34.0798C62.0656 34.2529 61.607 34.3192 61.1529 34.2728H57.6998V32.6356H61.1335C61.3905 32.6697 61.6507 32.6018 61.8583 32.4466C61.9267 32.3852 61.9813 32.3102 62.0188 32.2264C62.0562 32.1425 62.0756 32.0517 62.0756 31.9599C62.078 31.8664 62.0598 31.7735 62.0222 31.6879C61.9847 31.6022 61.9287 31.5259 61.8583 31.4643C61.6718 31.3377 61.4476 31.2783 61.2228 31.2961C59.5454 31.2455 57.4528 31.3556 57.4528 28.9832C57.4528 27.9026 58.1463 26.761 60.0217 26.761H63.5744V25.2726H60.2703C59.4792 25.2314 58.6961 25.447 58.0377 25.8873V25.2726H53.1454C52.3858 25.2335 51.6349 25.4499 51.0126 25.8873V25.2726H42.2907V25.8873C41.5587 25.465 40.7245 25.2523 39.8796 25.2726H34.124V25.8873C33.3739 25.4124 32.4888 25.1964 31.6042 25.2726H25.164L23.6965 26.8697L22.3063 25.2726H12.6825V35.721H22.1277L23.6459 34.1032L25.0747 35.721H30.9002V33.2503H31.4747C32.3185 33.3054 33.1643 33.1801 33.9558 32.8827V35.721H38.7677V32.9824H39.0059C39.2946 32.9824 39.3244 32.9824 39.3244 33.2905V35.721H53.9104C54.7696 35.7534 55.618 35.5212 56.341 35.0557V35.721H60.9653C61.8598 35.7419 62.7499 35.5722 63.5744 35.2254V33.2399V33.2801ZM56.4496 30.3033C56.6431 30.515 56.7906 30.7645 56.8828 31.036C56.9751 31.3076 57.01 31.5953 56.9854 31.881C56.9854 33.4885 55.9942 34.2431 54.1783 34.2431H50.6747V32.6356H54.1382C54.3975 32.6632 54.6582 32.5961 54.8719 32.4466C54.9706 32.3503 55.0378 32.2264 55.0649 32.0913C55.092 31.9561 55.0777 31.8159 55.0237 31.689C54.9865 31.6037 54.9318 31.5271 54.863 31.4643C54.6764 31.3377 54.4523 31.2783 54.2275 31.2961C52.5501 31.2455 50.4663 31.3556 50.4663 28.9832C50.4663 27.9026 51.1421 26.761 53.0174 26.761H56.6282V28.3491H53.3538C53.1071 28.3215 52.8579 28.3698 52.6394 28.4875C52.549 28.5428 52.476 28.6223 52.4286 28.7171C52.3813 28.8118 52.3615 28.9179 52.3715 29.0233C52.3658 29.1456 52.4006 29.2663 52.4706 29.3667C52.5406 29.4671 52.6418 29.5416 52.7584 29.5785C52.9832 29.6499 53.2198 29.6797 53.4535 29.6678H54.4463C55.1592 29.6187 55.8662 29.8345 56.4303 30.2736L56.4496 30.3033ZM40.3454 29.8375C40.0716 29.9714 39.7649 30.025 39.4628 29.9953H37.2898V28.3089H39.4926C39.7828 28.2806 40.076 28.3238 40.3454 28.4384C40.463 28.5059 40.5596 28.6046 40.6245 28.7236C40.6894 28.8426 40.72 28.9773 40.713 29.1126C40.7198 29.2535 40.6894 29.3937 40.6249 29.5191C40.5604 29.6445 40.464 29.7507 40.3454 29.8271V29.8375ZM41.417 30.7692C41.7638 30.8927 42.0704 31.1086 42.3011 31.3943C42.5393 31.8006 42.642 32.2754 42.5884 32.7443V34.2326H40.8023V33.2994C40.8745 32.7919 40.7733 32.2748 40.5151 31.8319C40.1377 31.5566 39.6679 31.4392 39.2053 31.5045H37.2898V34.2326H35.4933V26.7908H39.6221C40.3552 26.7265 41.0927 26.8494 41.7653 27.148C42.0666 27.297 42.3186 27.5297 42.491 27.8182C42.6633 28.1067 42.7489 28.4389 42.7372 28.7748C42.7507 29.1952 42.6367 29.6099 42.4101 29.9643C42.1835 30.3186 41.8549 30.5961 41.4676 30.7603L41.417 30.7692ZM43.73 26.7908H49.6835V28.3387H45.4565V29.6678H49.5346V31.1859H45.4565V32.6743H49.6835V34.2326H43.73V26.7908ZM31.634 30.214H29.3225V28.3089H31.6533C32.2993 28.3089 32.7458 28.5664 32.7458 29.2213C32.7458 29.8762 32.3186 30.214 31.634 30.214ZM27.5454 33.5584L24.8068 30.5117L27.5454 27.535V33.5584ZM20.4712 32.6743H16.076V31.1859H19.9949V29.6678H16.076V28.3089H20.5501L22.5356 30.4819L20.501 32.6743H20.4712ZM34.6598 29.2213C34.6598 31.2961 33.1119 31.7322 31.5551 31.7322H29.3225V34.2326H25.8695L23.6563 31.7515L21.3746 34.2222H14.2989V26.7908H21.4833L23.6756 29.2421L25.9484 26.7908H31.6533C33.0732 26.7908 34.6301 27.1882 34.6301 29.2511L34.6598 29.2213Z" fill="white"/>
</svg>
