<svg width="62" height="25" viewBox="0 0 62 25" fill="none" xmlns="http://www.w3.org/2000/svg">
<g clip-path="url(#clip0_19926_58422)">
<path d="M29.4575 12.4805V19.5432H27.2195V2.10761H33.1564C33.8665 2.09447 34.5723 2.22161 35.2332 2.48175C35.8942 2.74189 36.4972 3.12992 37.0079 3.62359C37.5227 4.08456 37.932 4.65109 38.2079 5.28457C38.4839 5.91805 38.62 6.60359 38.6071 7.29444C38.6203 7.98944 38.4843 8.67919 38.2085 9.31723C37.9326 9.95527 37.5233 10.5268 37.0079 10.9933C35.9653 11.9807 34.6859 12.4813 33.17 12.4813H29.4575V12.4805ZM29.4575 4.24813V10.3385H33.2123C33.6236 10.3518 34.0331 10.2782 34.4141 10.1225C34.795 9.9668 35.1389 9.73253 35.4231 9.43496C36.6049 8.29476 36.6185 6.41813 35.4783 5.23559L35.4231 5.17964C35.1415 4.87771 34.7985 4.63962 34.4171 4.48141C34.0358 4.32321 33.6249 4.24856 33.2123 4.26249L29.4575 4.24737V4.24813ZM43.7659 7.22413C45.421 7.22413 46.7276 7.66871 47.687 8.54503C48.6473 9.43496 49.1198 10.6447 49.1198 12.1879V19.5296H46.9778V17.8753H46.881C45.9495 19.2385 44.7262 19.9198 43.1822 19.9198C41.8749 19.9198 40.7627 19.5304 39.8864 18.7516C39.4607 18.3956 39.1208 17.9482 38.8921 17.4426C38.6634 16.937 38.5518 16.3863 38.5655 15.8315C38.5655 14.5938 39.038 13.6207 39.9703 12.8828C40.9018 12.1463 42.1532 11.7849 43.7107 11.7849C45.0452 11.7849 46.1302 12.0352 46.9922 12.5077V11.9936C46.9935 11.6172 46.9119 11.2452 46.7533 10.9039C46.5946 10.5625 46.3628 10.2603 46.0743 10.0187C45.4802 9.49132 44.7138 9.19952 43.9194 9.1983C42.6673 9.1983 41.6806 9.72757 40.9434 10.7838L38.9685 9.5461C40.0391 8.00291 41.6383 7.22413 43.7659 7.22413ZM40.8746 15.8867C40.8746 16.4712 41.1528 17.0133 41.6118 17.3468C42.1123 17.7362 42.7233 17.9448 43.3501 17.9312C44.2952 17.9312 45.1995 17.5554 45.8664 16.8878C46.6036 16.1922 46.9786 15.3726 46.9786 14.4267C46.283 13.871 45.3106 13.5927 44.0585 13.5927C43.155 13.5927 42.3898 13.815 41.7781 14.246C41.1808 14.6913 40.8746 15.2335 40.8746 15.8867ZM61.4117 7.61352L53.9309 24.7996H51.6225L54.4035 18.7932L49.4813 7.62713H51.9144L55.4605 16.193H55.5157L58.9786 7.62713L61.4117 7.61352Z" fill="#5F6368"/>
<path d="M20.4056 10.9508C20.4056 10.2688 20.3497 9.58753 20.2385 8.92065H10.7971V12.7722H16.2062C16.0954 13.3887 15.8608 13.9764 15.5165 14.4997C15.1723 15.023 14.7256 15.4711 14.2033 15.817V18.3197H17.4296C19.3206 16.5822 20.4056 14.0099 20.4056 10.9508Z" fill="#4285F4"/>
<path d="M10.7971 20.74C13.4941 20.74 15.7745 19.8501 17.4296 18.3205L14.2033 15.8178C13.2998 16.4295 12.146 16.7765 10.7971 16.7765C8.18249 16.7765 5.97166 15.011 5.17927 12.6467H1.85547V15.2333C2.69109 16.8881 3.96915 18.2789 5.54765 19.251C7.12614 20.2231 8.94326 20.7385 10.7971 20.74Z" fill="#34A853"/>
<path d="M5.17931 12.6475C4.76196 11.402 4.76196 10.0544 5.17931 8.80882V6.23657H1.8555C1.14945 7.62841 0.781494 9.16711 0.781494 10.7278C0.781494 12.2885 1.14945 13.8272 1.8555 15.219L5.17931 12.6475Z" fill="#FBBC04"/>
<path d="M10.7971 4.67902C12.2247 4.65158 13.6048 5.19193 14.6343 6.18139L17.4848 3.3309C15.6801 1.62321 13.2814 0.685423 10.7971 0.716316C8.94162 0.717608 7.12301 1.23439 5.54413 2.209C3.96526 3.18362 2.68821 4.57774 1.85547 6.23583L5.17927 8.82168C5.97166 6.44451 8.18249 4.67827 10.7971 4.67827V4.67902Z" fill="#EA4335"/>
</g>
<defs>
<clipPath id="clip0_19926_58422">
<rect width="62" height="24.1951" fill="white" transform="translate(0 0.716309)"/>
</clipPath>
</defs>
</svg>
