<svg width="62" height="27" viewBox="0 0 62 27" fill="none" xmlns="http://www.w3.org/2000/svg">
<g clip-path="url(#clip0_19926_58420)">
<path d="M8.29344 5.70813C9.45292 5.80556 10.6124 5.12034 11.3387 4.2467V4.24428C12.0521 3.35293 12.5239 2.14675 12.408 0.930908C11.3749 0.97922 10.11 1.61613 9.38528 2.5107C8.71536 3.27322 8.14609 4.53013 8.29263 5.70732L8.29344 5.70813ZM5.42292 21.6623C6.7056 21.6139 7.21045 20.82 8.75643 20.82C10.3129 20.82 10.7662 21.6623 12.1197 21.6445C13.5208 21.6156 14.4 20.3715 15.2576 19.0937C16.2319 17.6427 16.6385 16.2385 16.6586 16.1612C16.6312 16.133 13.9532 15.0919 13.9226 11.954C13.8944 9.32587 16.0402 8.07862 16.1336 8.00052C14.9258 6.17675 13.0417 5.98109 12.3846 5.93197L12.3895 5.93439C10.7066 5.83454 9.26934 6.90384 8.47622 6.90384C7.66458 6.90384 6.44793 5.98109 5.11373 6.01008C3.38739 6.04067 1.78183 7.03267 0.903363 8.60925C-0.913157 11.7761 0.429103 16.4551 2.18684 19.0341C3.04679 20.3071 4.07019 21.7114 5.42292 21.6623ZM36.7547 11.7189H39.3925C39.6147 10.5417 40.6864 9.76631 42.1575 9.76631C43.945 9.76631 44.9507 10.6085 44.9507 12.1674V13.2262L41.2992 13.4533C37.9093 13.6594 36.0719 15.0717 36.0719 17.5219C36.0823 19.9931 37.9729 21.6389 40.6888 21.6413C42.5263 21.6413 44.2269 20.7017 44.9966 19.2016H45.053V21.4972H47.7585V11.9846C47.7585 9.23086 45.5844 7.44493 42.2429 7.44493C39.1405 7.44493 36.8448 9.24535 36.7547 11.7189ZM44.9612 16.3214C44.9612 18.1065 43.4611 19.3795 41.4828 19.3795C39.9263 19.3795 38.9319 18.6146 38.9319 17.4575C38.9319 16.2489 39.8877 15.5557 41.7147 15.4478L44.9612 15.2416V16.3206V16.3214ZM22.088 2.38187V21.4948H25.0157V14.963H29.0634C32.7633 14.963 35.352 12.384 35.352 8.65836C35.352 4.93273 32.8044 2.38187 29.1585 2.38187H22.0888H22.088ZM32.3792 8.66883C32.3792 11.0804 30.9315 12.4742 28.3774 12.4742H25.0149V4.88361H28.3887C30.9283 4.88361 32.3792 6.25405 32.3792 8.66803V8.66883ZM55.4078 18.9157L51.9672 7.63013H48.9139L53.861 21.5463L53.5905 22.3893C53.1444 23.8194 52.4205 24.3806 51.1266 24.3806C50.8955 24.3806 50.4518 24.3524 50.2666 24.3323V26.6271C50.4422 26.669 51.1685 26.6971 51.3899 26.6971L51.3875 26.6923C54.2379 26.6923 55.5793 25.5844 56.7517 22.2396L61.8824 7.63013H58.908L55.4674 18.9157H55.4086H55.4078Z" fill="black"/>
</g>
<defs>
<clipPath id="clip0_19926_58420">
<rect width="62" height="25.7662" fill="white" transform="translate(0 0.930908)"/>
</clipPath>
</defs>
</svg>
