<svg width="62" height="46" viewBox="0 0 62 46" fill="none" xmlns="http://www.w3.org/2000/svg">
<g clip-path="url(#clip0_19926_58408)">
<path d="M58.4308 44.7393V44.8605H58.5915C58.5956 44.8534 58.5977 44.8454 58.5977 44.8373C58.5977 44.8291 58.5956 44.8211 58.5915 44.814H58.5351L58.4308 44.7393ZM58.5351 44.6632C58.5559 44.6546 58.5781 44.6501 58.6006 44.6501C58.6231 44.6501 58.6454 44.6546 58.6662 44.6632C58.6737 44.6796 58.6776 44.6974 58.6776 44.7154C58.6776 44.7334 58.6737 44.7512 58.6662 44.7675C58.6721 44.7808 58.6752 44.7952 58.6752 44.8098C58.6752 44.8244 58.6721 44.8388 58.6662 44.8521C58.6325 44.8643 58.5956 44.8643 58.5619 44.8521L58.7028 45.0113H58.5901L58.459 44.8521V45.0113H58.3646V44.5787L58.5337 44.6632H58.5351ZM58.5351 45.2466C58.5811 45.2599 58.63 45.2599 58.676 45.2466C58.7215 45.2305 58.7629 45.2045 58.7972 45.1705C58.8279 45.1368 58.8535 45.0989 58.8733 45.0578C58.9102 44.9645 58.9102 44.8608 58.8733 44.7675C58.8535 44.7264 58.8279 44.6885 58.7972 44.6548C58.7632 44.6184 58.7219 44.5897 58.676 44.5702H58.3942C58.3038 44.6096 58.2325 44.6829 58.1956 44.7744C58.1587 44.8658 58.1592 44.9681 58.1969 45.0592C58.2138 45.1015 58.2392 45.1395 58.2716 45.1719C58.3061 45.2084 58.3478 45.2372 58.3942 45.2565C58.4408 45.2653 58.4886 45.2653 58.5351 45.2565V45.2466ZM58.5351 44.4096C58.6621 44.4099 58.7837 44.4606 58.8733 44.5505C58.9184 44.5928 58.9536 44.6435 58.9762 44.7013C59.0043 44.7582 59.019 44.8209 59.019 44.8845C59.019 44.948 59.0043 45.0107 58.9762 45.0676C58.9563 45.1264 58.9207 45.1785 58.8733 45.2184C58.8309 45.263 58.7795 45.2981 58.7225 45.3213C58.6629 45.3462 58.599 45.359 58.5344 45.359C58.4698 45.359 58.4059 45.3462 58.3463 45.3213C58.288 45.2958 58.2342 45.2611 58.1871 45.2184C58.147 45.1741 58.115 45.1231 58.0927 45.0676C58.0645 45.0107 58.0498 44.948 58.0498 44.8845C58.0498 44.8209 58.0645 44.7582 58.0927 44.7013C58.1434 44.5886 58.2336 44.4984 58.3463 44.4476C58.4084 44.4334 58.473 44.4334 58.5351 44.4476V44.4096ZM14.1671 42.7567C14.1763 42.473 14.2694 42.1984 14.4346 41.9676C14.5997 41.7367 14.8295 41.5599 15.095 41.4594C15.3605 41.359 15.6497 41.3394 15.9263 41.4032C16.203 41.4669 16.4545 41.6111 16.6492 41.8176C16.844 42.0242 16.9732 42.2837 17.0206 42.5636C17.0681 42.8434 17.0316 43.1311 16.9157 43.3902C16.7999 43.6494 16.6099 43.8684 16.3698 44.0197C16.1296 44.1711 15.85 44.2479 15.5663 44.2405C15.369 44.2437 15.1731 44.2059 14.9912 44.1295C14.8092 44.0532 14.645 43.9399 14.509 43.7969C14.373 43.6539 14.2682 43.4843 14.2011 43.2987C14.134 43.1131 14.1061 42.9156 14.1192 42.7187L14.1671 42.7567ZM17.9716 42.7187V40.343H16.9387V40.9249C16.7629 40.6956 16.5345 40.512 16.2729 40.3894C16.0112 40.2667 15.724 40.2088 15.4352 40.2204C14.7725 40.2204 14.1368 40.4837 13.6682 40.9523C13.1995 41.421 12.9362 42.0566 12.9362 42.7194C12.9362 43.3822 13.1995 44.0178 13.6682 44.4865C14.1368 44.9551 14.7725 45.2184 15.4352 45.2184C15.7228 45.2291 16.0088 45.1717 16.2698 45.0507C16.5309 44.9297 16.7596 44.7486 16.9373 44.5223V45.0958H17.9716V42.7187ZM52.9171 42.7187C52.9342 42.4389 53.0327 42.1702 53.2005 41.9457C53.3683 41.7211 53.598 41.5505 53.8614 41.4547C54.1248 41.3589 54.4105 41.3421 54.6833 41.4065C54.9561 41.4708 55.2042 41.6135 55.3971 41.8169C55.5896 42.0209 55.7181 42.2768 55.767 42.553C55.8158 42.8292 55.7828 43.1136 55.6719 43.3713C55.5611 43.6289 55.3773 43.8485 55.1432 44.003C54.909 44.1574 54.6348 44.24 54.3543 44.2405C54.1578 44.2423 53.9631 44.2035 53.7823 44.1265C53.6015 44.0496 53.4385 43.9361 53.3036 43.7933C53.1687 43.6504 53.0647 43.4812 52.9982 43.2963C52.9317 43.1114 52.9041 42.9148 52.9171 42.7187ZM56.7681 42.7187V38.4351H55.7437V40.9249C55.571 40.6946 55.3447 40.51 55.0843 40.3872C54.824 40.2645 54.5376 40.2072 54.2501 40.2204C53.5873 40.2204 52.9516 40.4837 52.483 40.9523C52.0143 41.421 51.751 42.0566 51.751 42.7194C51.751 43.3822 52.0143 44.0178 52.483 44.4865C52.9516 44.9551 53.5873 45.2184 54.2501 45.2184C54.5366 45.2309 54.822 45.1742 55.082 45.053C55.342 44.9318 55.569 44.7498 55.7437 44.5223V45.0958H56.7864L56.7681 42.7187ZM30.8225 41.1504C30.9775 41.1466 31.1317 41.1736 31.2761 41.2298C31.4206 41.286 31.5525 41.3702 31.6643 41.4776C31.776 41.585 31.8654 41.7135 31.9272 41.8557C31.989 41.9978 32.0221 42.1508 32.0245 42.3058H29.5628C29.5799 41.9867 29.7214 41.6871 29.9569 41.4711C30.1924 41.2551 30.5031 41.14 30.8225 41.1504ZM30.8225 40.2105C30.1684 40.2321 29.5489 40.5093 29.0969 40.9826C28.645 41.4559 28.3967 42.0876 28.4054 42.742C28.414 43.3964 28.679 44.0213 29.1433 44.4825C29.6076 44.9436 30.2343 45.2043 30.8887 45.2086C31.5961 45.2339 32.2894 44.9972 32.8333 44.5421L32.326 43.7713C31.9345 44.0871 31.4481 44.2623 30.9451 44.2687C30.6035 44.298 30.264 44.1927 29.9989 43.9753C29.7339 43.7579 29.5642 43.4455 29.5262 43.1048H33.0573V42.7102C33.0875 42.3944 33.0515 42.0757 32.9516 41.7746C32.8517 41.4734 32.6902 41.1964 32.4772 40.9612C32.2643 40.726 32.0047 40.5378 31.7149 40.4085C31.4251 40.2792 31.1116 40.2118 30.7943 40.2105H30.8225ZM43.2887 42.7102C43.3074 42.4053 43.4228 42.1143 43.6181 41.8794C43.8134 41.6445 44.0785 41.4779 44.3748 41.4039C44.6712 41.3298 44.9834 41.3521 45.2663 41.4675C45.5491 41.5829 45.7878 41.7854 45.9478 42.0457C46.1078 42.3059 46.1806 42.6104 46.1559 42.9148C46.1311 43.2193 46.0099 43.508 45.81 43.7389C45.6101 43.9699 45.3417 44.1312 45.0439 44.1993C44.7462 44.2674 44.4344 44.2389 44.1539 44.1179C43.8816 44.0015 43.652 43.8035 43.4971 43.5511C43.3421 43.2987 43.2693 43.0044 43.2887 42.7088V42.7102ZM47.1299 42.7102V40.343H46.0971V40.9249C45.9223 40.6945 45.6941 40.51 45.4322 40.3872C45.1703 40.2645 44.8825 40.2072 44.5936 40.2204C43.9308 40.2204 43.2951 40.4837 42.8265 40.9523C42.3578 41.421 42.0945 42.0566 42.0945 42.7194C42.0945 43.3822 42.3578 44.0178 42.8265 44.4865C43.2951 44.9551 43.9308 45.2184 44.5936 45.2184C44.8816 45.231 45.1684 45.1743 45.43 45.0532C45.6916 44.9321 45.9203 44.7501 46.0971 44.5223V45.0958H47.1299V42.7102ZM37.4452 42.7102C37.4305 43.0467 37.4865 43.3825 37.6096 43.6959C37.7328 44.0094 37.9204 44.2935 38.1602 44.5299C38.4001 44.7663 38.6869 44.9497 39.0021 45.0683C39.3173 45.1869 39.6539 45.2381 39.9901 45.2184C40.6129 45.2494 41.223 45.0451 41.7007 44.6449L41.2019 43.8093C40.8438 44.0852 40.4054 44.2366 39.9534 44.2405C39.5498 44.2405 39.1627 44.0802 38.8773 43.7948C38.5919 43.5094 38.4316 43.1223 38.4316 42.7187C38.4316 42.3151 38.5919 41.928 38.8773 41.6426C39.1627 41.3572 39.5498 41.1969 39.9534 41.1969C40.4043 41.2025 40.8412 41.3519 41.2033 41.6196L41.7007 40.784C41.2203 40.3912 40.6113 40.1903 39.9915 40.2204C39.6568 40.2018 39.3219 40.2535 39.0083 40.372C38.6947 40.4904 38.4094 40.6732 38.1706 40.9084C37.9318 41.1436 37.7447 41.4262 37.6215 41.7379C37.4983 42.0497 37.4416 42.3837 37.4551 42.7187L37.4452 42.7102ZM50.7837 40.2204C50.5324 40.2133 50.2838 40.2741 50.0641 40.3964C49.8444 40.5186 49.6617 40.6978 49.5352 40.9151V40.343H48.5489V45.0958H49.5817V42.4284C49.5817 41.6478 49.9199 41.2067 50.5963 41.2067C50.8189 41.2067 51.0387 41.2476 51.2445 41.3293L51.5545 40.3895C51.3201 40.3021 51.0719 40.2577 50.8218 40.2584L50.7851 40.2204H50.7837ZM23.081 40.7178C22.5133 40.3806 21.8628 40.2083 21.2027 40.2204C20.0007 40.2204 19.2201 40.8023 19.2201 41.7422C19.2201 42.5214 19.7936 43.0005 20.8645 43.1513L21.3534 43.2175C21.9171 43.2922 22.189 43.443 22.189 43.7149C22.189 43.9869 21.8043 44.2884 21.0998 44.2884C20.5323 44.3062 19.9758 44.1303 19.5216 43.7896L19.0327 44.5984C19.6343 45.0211 20.3558 45.2396 21.0899 45.2184C22.461 45.2184 23.2599 44.5702 23.2599 43.6684C23.2599 42.7666 22.6301 42.3904 21.5972 42.2396L21.1082 42.1748C20.6672 42.1184 20.3107 42.024 20.3107 41.7041C20.3107 41.3857 20.6489 41.1504 21.2506 41.1504C21.7719 41.1574 22.282 41.2969 22.7343 41.5548L23.1754 40.7178H23.0824H23.081ZM36.4307 40.2204C36.1781 40.2135 35.9282 40.2743 35.707 40.3964C35.4857 40.5185 35.3012 40.6976 35.1724 40.9151V40.343H34.1663V45.0958H35.1992V42.4284C35.1992 41.6478 35.5373 41.2067 36.2137 41.2067C36.4357 41.2047 36.656 41.2463 36.8619 41.3293L37.1817 40.3895C36.9474 40.3021 36.6992 40.2577 36.449 40.2584L36.4307 40.2204ZM27.6197 40.3796H25.9006V38.8958H24.886V40.343H23.9462V41.2814H24.8846V43.4796C24.8846 44.5886 25.3172 45.2466 26.5389 45.2466C26.9968 45.2466 27.4449 45.1198 27.8352 44.8802L27.5351 43.9404C27.2501 44.1097 26.9266 44.2033 26.5952 44.2123C26.0781 44.2123 25.909 43.8939 25.909 43.4148V41.2913H27.5999L27.6197 40.3796ZM12.1563 45.0958V42.1184C12.1715 41.8677 12.1333 41.6167 12.0443 41.3818C11.9553 41.147 11.8175 40.9337 11.64 40.756C11.4625 40.5784 11.2493 40.4404 11.0145 40.3512C10.7797 40.262 10.5287 40.2237 10.278 40.2387C9.94958 40.221 9.6223 40.2897 9.3288 40.4381C9.0353 40.5865 8.78585 40.8092 8.60538 41.0841C8.44385 40.8155 8.21301 40.5953 7.93708 40.4465C7.66115 40.2978 7.35028 40.226 7.03706 40.2387C6.76396 40.2248 6.49197 40.2825 6.24803 40.4061C6.00409 40.5297 5.79666 40.7148 5.64629 40.9432V40.3613H4.62329V45.1141H5.66602V42.4566C5.64343 42.2941 5.65717 42.1286 5.70626 41.9721C5.75535 41.8155 5.83856 41.6718 5.94989 41.5513C6.06123 41.4308 6.19791 41.3365 6.35009 41.2752C6.50227 41.2139 6.66615 41.1872 6.82993 41.1969C7.51615 41.1969 7.8642 41.6478 7.8642 42.4467V45.0958H8.90693V42.4566C8.88614 42.2944 8.90116 42.1297 8.95091 41.9739C9.00067 41.8182 9.08395 41.6752 9.19491 41.5551C9.30587 41.435 9.4418 41.3407 9.59313 41.2788C9.74446 41.2169 9.90753 41.189 10.0708 41.1969C10.7754 41.1969 11.1136 41.6393 11.1136 42.4467V45.0958H12.1563Z" fill="#231F20"/>
<path d="M59.0128 29.2774V28.5813H58.8353L58.6282 29.0604L58.4224 28.5813H58.2336V29.2774H58.3661V28.7603L58.5633 29.2112H58.6944L58.8917 28.7504V29.276H59.0142L59.0128 29.2774ZM57.8672 29.2774V28.7039H58.1026V28.5813H57.5107V28.7039H57.7362V29.2774H57.8672Z" fill="#F79410"/>
<path d="M38.4315 32.2634H22.7625V4.08154H38.4315V32.2634Z" fill="#FF5F00"/>
<path d="M23.7573 18.1822C23.7525 15.4697 24.366 12.7917 25.5511 10.3518C26.7363 7.91191 28.462 5.77421 30.597 4.10114C27.9537 2.02573 24.7799 0.735691 21.4382 0.378398C18.0965 0.0211048 14.7217 0.610968 11.6994 2.0806C8.67701 3.55023 6.12896 5.84036 4.34634 8.68936C2.56372 11.5384 1.61841 14.8313 1.61841 18.192C1.61841 21.5528 2.56372 24.8457 4.34634 27.6947C6.12896 30.5437 8.67701 32.8339 11.6994 34.3035C14.7217 35.7731 18.0965 36.363 21.4382 36.0057C24.7799 35.6484 27.9537 34.3584 30.597 32.283C28.4605 30.609 26.7339 28.4697 25.5487 26.028C24.3634 23.5862 23.7508 20.9063 23.7573 18.192" fill="#EB001B"/>
<path d="M59.5765 18.1823C59.5791 21.5441 58.6352 24.8388 56.8527 27.6892C55.0701 30.5396 52.5211 32.8305 49.4973 34.2998C46.4735 35.769 43.0972 36.3572 39.7547 35.9971C36.4122 35.637 33.2386 34.343 30.5972 32.2633C32.7323 30.5873 34.4587 28.4479 35.6458 26.0068C36.8329 23.5658 37.4498 20.8869 37.4498 18.1724C37.4498 15.458 36.8329 12.7791 35.6458 10.338C34.4587 7.89696 32.7323 5.75759 30.5972 4.08153C33.2394 2.0015 36.4139 0.707561 39.7573 0.347859C43.1008 -0.0118425 46.4779 0.577233 49.5021 2.04764C52.5263 3.51805 55.0753 5.81035 56.8572 8.66209C58.6392 11.5138 59.5821 14.8097 59.5779 18.1724" fill="#F79E1B"/>
</g>
<defs>
<clipPath id="clip0_19926_58408">
<rect width="62" height="45.0909" fill="white" transform="translate(0 0.268555)"/>
</clipPath>
</defs>
</svg>
