<svg width="62" height="22" viewBox="0 0 62 22" fill="none" xmlns="http://www.w3.org/2000/svg">
<g clip-path="url(#clip0_19926_58405)">
<path d="M17.7989 0.836868L13.1709 15.0659L12.296 11.0634C10.9671 7.59967 8.61826 4.62077 5.56006 2.52051L9.99581 20.8002H15.3347L22.8112 0.865802H17.7989V0.836868ZM57.658 0.836868H52.3184L44.1303 20.7616H49.1137L50.1815 17.8752H56.5895L57.3011 20.7616H61.5722L57.6587 0.836868H57.658ZM51.2499 14.3542L54.1364 6.88738L55.5603 14.3536H51.2499V14.3542ZM37.012 6.52227C37.012 5.46414 37.7243 4.38671 40.2153 4.38671C41.5142 4.5096 42.7501 5.00394 43.7755 5.81065L44.8433 1.54849C43.3722 0.932982 41.8073 0.571917 40.2153 0.480713C34.8757 0.480713 32.384 3.36716 32.384 6.53191C32.384 12.9303 39.503 11.8715 39.503 15.0659C39.503 15.7782 39.1475 16.846 36.2997 16.846C34.582 16.844 32.8839 16.4802 31.3162 15.7782L30.6039 20.0493C32.2674 20.8433 34.1026 21.2103 35.9435 21.1171C39.1468 21.4732 44.1309 18.6254 44.1309 14.3825C44.1309 9.37013 37.0113 9.02431 37.0113 6.52227H37.012ZM22.07 21.1171H27.0541L30.2574 1.19234H24.9185L22.07 21.1171Z" fill="#1565C0"/>
<path d="M12.5068 11.8619L10.6792 2.97245C10.426 2.42512 10.0173 1.96449 9.50392 1.64803C8.99059 1.33158 8.39542 1.17334 7.79271 1.19305H0C0 1.19305 10.323 4.39638 12.5068 11.8626V11.8619Z" fill="#FF9800"/>
</g>
<defs>
<clipPath id="clip0_19926_58405">
<rect width="62" height="20.6667" fill="white" transform="translate(0 0.480713)"/>
</clipPath>
</defs>
</svg>
