<svg width="21" height="22" viewBox="0 0 21 22" fill="none" xmlns="http://www.w3.org/2000/svg">
<g clip-path="url(#clip0_13647:36891)">
<path d="M18.375 0.5H2.625C1.17731 0.5 0 1.67731 0 3.125V18.875C0 20.3227 1.17731 21.5 2.625 21.5H18.375C19.8227 21.5 21 20.3227 21 18.875V3.125C21 1.67731 19.8227 0.5 18.375 0.5Z" fill="#2F80ED"/>
<path d="M17.7188 11H14.4375V8.375C14.4375 7.6505 15.0255 7.71875 15.75 7.71875H17.0625V4.4375H14.4375C12.2627 4.4375 10.5 6.20019 10.5 8.375V11H7.875V14.2812H10.5V21.5H14.4375V14.2812H16.4062L17.7188 11Z" fill="#FAFAFA"/>
</g>
<defs>
<clipPath id="clip0_13647:36891">
<rect width="21" height="21" fill="white" transform="translate(0 0.5)"/>
</clipPath>
</defs>
</svg>
