<svg width="22" height="22" viewBox="0 0 22 22" fill="none" xmlns="http://www.w3.org/2000/svg">
<g clip-path="url(#clip0_13647:36897)">
<path d="M20.7071 9.17424L12.1414 9.17383C11.7631 9.17383 11.4565 9.48038 11.4565 9.85863V12.595C11.4565 12.9731 11.7631 13.2798 12.1413 13.2798H16.965C16.4368 14.6506 15.451 15.7985 14.1932 16.528L16.25 20.0885C19.5494 18.1803 21.5 14.8323 21.5 11.0843C21.5 10.5507 21.4606 10.1692 21.382 9.73964C21.3222 9.41328 21.0388 9.17424 20.7071 9.17424Z" fill="#167EE6"/>
<path d="M11 17.3912C8.63938 17.3912 6.57859 16.1015 5.47178 14.1929L1.91138 16.245C3.72324 19.3853 7.11745 21.4999 11 21.4999C12.9046 21.4999 14.7018 20.9871 16.25 20.0934V20.0885L14.1932 16.528C13.2524 17.0736 12.1636 17.3912 11 17.3912Z" fill="#12B347"/>
<path d="M16.25 20.0933V20.0884L14.1932 16.5278C13.2524 17.0735 12.1637 17.3911 11 17.3911V21.4998C12.9046 21.4998 14.7019 20.987 16.25 20.0933Z" fill="#0F993E"/>
<path d="M4.6087 11C4.6087 9.83642 4.92624 8.74783 5.47179 7.80706L1.91139 5.75488C1.01278 7.29818 0.5 9.09047 0.5 11C0.5 12.9095 1.01278 14.7018 1.91139 16.2451L5.47179 14.1929C4.92624 13.2522 4.6087 12.1636 4.6087 11Z" fill="#FFD500"/>
<path d="M11 4.6087C12.5393 4.6087 13.9533 5.15568 15.0577 6.06553C15.3302 6.28997 15.7262 6.27377 15.9758 6.02419L17.9146 4.08538C18.1978 3.80221 18.1776 3.33869 17.8751 3.07627C16.0247 1.47096 13.6171 0.5 11 0.5C7.11745 0.5 3.72324 2.61464 1.91138 5.75488L5.47178 7.80706C6.57859 5.89848 8.63938 4.6087 11 4.6087Z" fill="#FF4B26"/>
<path d="M15.0578 6.06553C15.3302 6.28997 15.7263 6.27377 15.9758 6.02419L17.9146 4.08538C18.1978 3.80221 18.1776 3.33869 17.8751 3.07627C16.0247 1.47092 13.6171 0.5 11 0.5V4.6087C12.5393 4.6087 13.9533 5.15568 15.0578 6.06553Z" fill="#D93F21"/>
</g>
<defs>
<clipPath id="clip0_13647:36897">
<rect width="21" height="21" fill="white" transform="translate(0.5 0.5)"/>
</clipPath>
</defs>
</svg>
