<svg width="25" height="26" viewBox="0 0 25 26" fill="none" xmlns="http://www.w3.org/2000/svg">
<path d="M10.1674 15.4654C9.56844 14.8675 9.20386 14.055 9.20386 13.1436C9.20386 11.3175 10.6747 9.84564 12.4997 9.84564C13.4028 9.84564 14.2341 10.2113 14.8226 10.8092" stroke="#8F9DB4" stroke-width="1.5" stroke-linecap="round" stroke-linejoin="round"/>
<path d="M15.7343 13.728C15.4926 15.0718 14.4343 16.1322 13.0916 16.3759" stroke="#8F9DB4" stroke-width="1.5" stroke-linecap="round" stroke-linejoin="round"/>
<path d="M6.93197 18.7004C5.27884 17.4024 3.87884 15.5066 2.86426 13.1431C3.88926 10.7691 5.29863 8.86285 6.96217 7.55452C8.6153 6.24618 10.5226 5.53577 12.4997 5.53577C14.4882 5.53577 16.3945 6.2566 18.058 7.57431" stroke="#8F9DB4" stroke-width="1.5" stroke-linecap="round" stroke-linejoin="round"/>
<path d="M20.2579 9.86542C20.9746 10.8175 21.6048 11.9165 22.135 13.1425C20.086 17.8894 16.4652 20.7488 12.4996 20.7488C11.6006 20.7488 10.7141 20.6029 9.86206 20.3185" stroke="#8F9DB4" stroke-width="1.5" stroke-linecap="round" stroke-linejoin="round"/>
<path d="M20.7157 4.9267L4.28442 21.3579" stroke="#8F9DB4" stroke-width="1.5" stroke-linecap="round" stroke-linejoin="round"/>
</svg>
