<svg width="14" height="14" viewBox="0 0 14 14" fill="none" xmlns="http://www.w3.org/2000/svg">
<path d="M7 0C10.8673 0 14 3.13421 14 7C14 10.8666 10.8666 14 7 14C3.13421 14 0 10.8658 0 7C0 3.13421 3.13421 0 7 0ZM7 1.0011C3.68713 1.0011 1.0011 3.6879 1.0011 7C1.0011 10.3136 3.68713 12.9989 7 12.9989C10.3136 12.9989 12.9989 10.3136 12.9989 7C12.9989 3.68713 10.3144 1.0011 7 1.0011ZM6.97305 9.84697C7.26722 9.84697 7.50671 10.0857 7.50671 10.3806C7.50671 10.6756 7.26799 10.9143 6.97305 10.9143C6.67811 10.9143 6.43861 10.6756 6.43861 10.3806C6.43861 10.0857 6.67811 9.84697 6.97305 9.84697ZM7.22178 3.27052C8.47701 3.27052 9.27096 3.94433 9.33564 5.07635C9.37184 5.72321 9.14929 6.18218 8.66414 6.69043L8.0011 7.35501C7.53366 7.84477 7.43509 8.05732 7.43509 8.4824V8.89747C7.43509 9.17393 7.21177 9.39802 6.93454 9.39802C6.65809 9.39802 6.43399 9.17393 6.43399 8.89747V8.48163C6.43399 7.65611 6.68273 7.25413 7.51672 6.41936C7.52211 6.4132 7.85864 6.08361 7.94026 5.9989L8.03652 5.89417C8.27294 5.62464 8.35225 5.42442 8.33685 5.13333C8.30297 4.55578 7.96876 4.27239 7.22178 4.27239C6.53179 4.27239 6.13212 4.68438 6.07206 5.48834C6.05204 5.76403 5.81177 5.97118 5.53608 5.95039C5.2604 5.92959 5.05325 5.68933 5.07404 5.41364C5.17107 4.10913 5.98273 3.27129 7.22255 3.27129L7.22178 3.27052Z" fill="#0052FF"/>
</svg>
