<svg width="20" height="20" viewBox="0 0 20 20" fill="none" xmlns="http://www.w3.org/2000/svg">
<path fill-rule="evenodd" clip-rule="evenodd" d="M15.3631 2.4035C15.3631 2.08127 15.1012 1.81845 14.7781 1.81845V1.82025C14.6881 1.82025 14.6026 1.84005 14.527 1.87516C14.473 1.88506 14.419 1.90126 14.3668 1.92646L12.7169 2.73203L10.9375 1.87696C10.7782 1.79955 10.591 1.79955 10.4307 1.87696L8.64861 2.73203L6.84576 1.87516C6.68645 1.79865 6.50194 1.79955 6.34352 1.87516L4.53798 2.73293L2.83595 1.92106L2.79544 1.90486C2.70634 1.84996 2.60193 1.81845 2.49032 1.81845C2.16719 1.81845 1.90527 2.08217 1.90527 2.4035V16.4896C1.90527 17.3699 2.58393 18.0989 3.4462 18.1754L3.59741 18.1817H16.4027C17.3343 18.1817 18.0949 17.4212 18.0949 16.4896V7.4673C18.0949 7.14328 17.8329 6.88225 17.5098 6.88225C17.4369 6.88225 17.3667 6.89486 17.3037 6.92006C17.2542 6.93086 17.2047 6.94886 17.157 6.97406L15.9689 7.60771C15.6836 7.75892 15.5756 8.11355 15.7277 8.39797L15.779 8.47898C15.95 8.7022 16.2623 8.77691 16.5197 8.63919L16.9248 8.42318V16.4896C16.9248 16.7758 16.688 17.0117 16.4027 17.0117H15.8852C15.5756 17.0117 15.3631 16.6219 15.3631 16.0486V2.4035ZM8.24724 7.06374V5.72202C8.24724 5.68348 8.27848 5.65223 8.31703 5.65223H9.04982C9.08837 5.65223 9.11961 5.68348 9.11961 5.72202V7.08193C9.63226 7.15177 10.0627 7.32954 10.4109 7.61524C10.8282 7.95762 11.0701 8.41457 11.1365 8.98608C11.148 9.0852 11.068 9.16887 10.9682 9.16887H10.1909C10.0993 9.16887 10.0246 9.0976 10.0077 9.00753C9.95534 8.72806 9.81814 8.49824 9.59613 8.31807C9.341 8.10434 8.99534 7.99748 8.55915 7.99748C8.15588 7.99748 7.83491 8.08379 7.59624 8.25642C7.35758 8.42904 7.23824 8.6551 7.23824 8.93459C7.23824 9.15654 7.3082 9.3415 7.4481 9.48946C7.59624 9.62921 7.7773 9.74429 7.99128 9.83471C8.21349 9.91692 8.518 10.0114 8.90481 10.1183C9.39038 10.2498 9.78542 10.3814 10.0899 10.5129C10.3944 10.6362 10.6537 10.8253 10.8677 11.0801C11.0899 11.3349 11.2051 11.6678 11.2133 12.0788C11.2133 12.4488 11.1104 12.7817 10.9047 13.0776C10.6989 13.3735 10.4068 13.6078 10.0282 13.7804C9.75638 13.9011 9.45351 13.9775 9.11961 14.0096V15.3531C9.11961 15.3916 9.08837 15.4229 9.04982 15.4229H8.31703C8.27848 15.4229 8.24724 15.3916 8.24724 15.3531V13.9987C7.92399 13.9605 7.62469 13.8836 7.34935 13.7681C6.93785 13.5873 6.61276 13.3407 6.37409 13.0283C6.1717 12.7564 6.04625 12.4521 5.99773 12.1152C5.98341 12.0157 6.06385 11.9309 6.16433 11.9309H6.98122C7.07101 11.9309 7.14465 11.9995 7.16457 12.0871C7.22528 12.354 7.37329 12.5773 7.60859 12.757C7.89664 12.9707 8.2711 13.0776 8.73198 13.0776C9.15994 13.0776 9.49737 12.9831 9.74427 12.794C9.99117 12.6049 10.1146 12.3666 10.1146 12.0788C10.1146 11.7829 9.98294 11.5651 9.71958 11.4253C9.45622 11.2774 9.04884 11.1335 8.49743 10.9938C7.9954 10.8622 7.5839 10.7307 7.26293 10.5992C6.95019 10.4595 6.6786 10.2581 6.44816 9.99501C6.22595 9.72374 6.11485 9.37027 6.11485 8.93459C6.11485 8.58934 6.21772 8.27286 6.42347 7.98515C6.62922 7.69744 6.92139 7.47138 7.29997 7.30698C7.58533 7.17686 7.90108 7.09578 8.24724 7.06374Z" fill="#333B48"/>
</svg>
