<svg width="20" height="20" viewBox="0 0 20 20" fill="none" xmlns="http://www.w3.org/2000/svg">
<path fill-rule="evenodd" clip-rule="evenodd" d="M15.8926 15.8916C13.3458 18.4387 9.57465 18.989 6.48852 17.5618C6.03293 17.3783 5.65941 17.2301 5.30431 17.2301C4.31524 17.2359 3.08414 18.195 2.4443 17.5559C1.80447 16.916 2.76422 15.6839 2.76422 14.6889C2.76422 14.3337 2.62185 13.9669 2.43844 13.5104C1.01053 10.4248 1.56159 6.65232 4.10839 4.10609C7.3595 0.853775 12.6415 0.853775 15.8926 4.10525C19.1496 7.36259 19.1438 12.6402 15.8926 15.8916Z" stroke="#333B48" stroke-width="1.5" stroke-linecap="round" stroke-linejoin="round"/>
<path d="M13.2825 10.3442H13.29" stroke="#333B48" stroke-width="2" stroke-linecap="round" stroke-linejoin="round"/>
<path d="M9.94173 10.3442H9.94923" stroke="#333B48" stroke-width="2" stroke-linecap="round" stroke-linejoin="round"/>
<path d="M6.60091 10.3442H6.60841" stroke="#333B48" stroke-width="2" stroke-linecap="round" stroke-linejoin="round"/>
</svg>
