<svg width="20" height="20" viewBox="0 0 20 20" fill="none" xmlns="http://www.w3.org/2000/svg">
<path fill-rule="evenodd" clip-rule="evenodd" d="M10.0002 16.8182C6.2346 16.8182 3.182 13.7656 3.182 10.0001C3.182 6.23448 6.2346 3.18187 10.0002 3.18187C13.7658 3.18187 16.8184 6.23448 16.8184 10.0001C16.8184 13.7656 13.7658 16.8182 10.0002 16.8182ZM1.81836 10.0001C1.81836 5.48136 5.48148 1.81824 10.0002 1.81824C14.5189 1.81824 18.182 5.48136 18.182 10.0001C18.182 14.5187 14.5189 18.1819 10.0002 18.1819C5.48148 18.1819 1.81836 14.5187 1.81836 10.0001ZM10.682 6.36386C10.682 5.9873 10.3767 5.68204 10.0002 5.68204C9.62362 5.68204 9.31836 5.9873 9.31836 6.36386V10.6063C9.31836 10.8167 9.4155 11.0153 9.58158 11.1445L12.3089 13.2657C12.6061 13.4969 13.0345 13.4433 13.2656 13.1461C13.4968 12.8489 13.4433 12.4205 13.146 12.1893L10.682 10.2728V6.36386Z" fill="#333B48"/>
</svg>
