<svg width="20" height="20" viewBox="0 0 20 20" fill="none" xmlns="http://www.w3.org/2000/svg">
<path fill-rule="evenodd" clip-rule="evenodd" d="M3.09916 2.45461C2.94854 2.45461 2.82644 2.57672 2.82644 2.72734V9.46288C2.82644 9.6135 2.94854 9.7356 3.09917 9.7356H16.9008C17.0514 9.7356 17.1735 9.6135 17.1735 9.46288V2.72734C17.1735 2.57672 17.0514 2.45461 16.9008 2.45461H3.09916ZM1.55371 2.72734C1.55371 1.87381 2.24563 1.18188 3.09916 1.18188H16.9008C17.7543 1.18188 18.4463 1.87381 18.4463 2.72734V9.46288C18.4463 10.3164 17.7543 11.0083 16.9008 11.0083H13.2397V13.4546H14.6694C15.5229 13.4546 16.2149 14.1465 16.2149 15.0001V17.2728C16.2149 18.1263 15.5229 18.8183 14.6694 18.8183H5.33057C4.47704 18.8183 3.78512 18.1263 3.78512 17.2728V15.0001C3.78512 14.1465 4.47704 13.4546 5.33057 13.4546H6.76032V11.0083H3.09917C2.24563 11.0083 1.55371 10.3164 1.55371 9.46288V2.72734ZM8.03305 11.0083V14.6695C8.03305 14.8201 8.15515 14.9422 8.30578 14.9422H11.6942C11.8448 14.9422 11.9669 14.8201 11.9669 14.6695V11.0083H8.03305ZM6.76138 14.7273H5.33057C5.17995 14.7273 5.05784 14.8494 5.05784 15.0001V17.2728C5.05784 17.4234 5.17995 17.5455 5.33057 17.5455H14.6694C14.82 17.5455 14.9421 17.4234 14.9421 17.2728V15.0001C14.9421 14.8494 14.82 14.7273 14.6694 14.7273H13.2386C13.2082 15.5541 12.5284 16.2149 11.6942 16.2149H8.30578C7.47161 16.2149 6.79181 15.5541 6.76138 14.7273Z" fill="#333B48"/>
</svg>
