<svg width="20" height="21" viewBox="0 0 20 21" fill="none" xmlns="http://www.w3.org/2000/svg">
<path fill-rule="evenodd" clip-rule="evenodd" d="M10.6647 1.73145C11.2756 1.73127 11.8606 1.97835 12.2864 2.41642C12.7086 2.85073 12.9388 3.43611 12.9257 4.04122C12.9289 4.18896 12.9703 4.33342 13.0457 4.4606L13.0475 4.46362C13.1711 4.67436 13.3734 4.82729 13.6099 4.88868C13.8463 4.95008 14.0975 4.9149 14.308 4.7909L14.3149 4.78683C15.3964 4.1671 16.7756 4.53973 17.3979 5.61978C17.3979 5.61977 17.3979 5.6198 17.3979 5.61978L17.9166 6.51986C17.9307 6.54434 17.9432 6.56962 17.954 6.59552C18.5171 7.66131 18.1439 8.98907 17.0958 9.6021L17.0906 9.60516C16.9521 9.68446 16.8373 9.79924 16.758 9.93769L16.7556 9.94195C16.6323 10.1535 16.5985 10.4055 16.6616 10.6421C16.7247 10.8786 16.8795 11.0803 17.0917 11.2024C17.6115 11.5015 17.9907 11.9954 18.1452 12.5749C18.2998 13.1544 18.2169 13.7716 17.915 14.2898L17.9107 14.2972L17.3636 15.2089C16.7367 16.2814 15.3615 16.6473 14.2844 16.0276C14.1493 15.9506 13.9976 15.9076 13.8424 15.9023C13.5995 15.9031 13.3668 15.9999 13.1949 16.1717C13.0213 16.3453 12.9243 16.5811 12.9255 16.8266L12.9255 16.833C12.9196 18.0775 11.9091 19.0831 10.6646 19.0831H9.61965C8.37242 19.0831 7.36107 18.0732 7.35879 16.8265C7.35675 16.6761 7.31531 16.529 7.23857 16.3997L7.23313 16.3905C7.11231 16.1793 6.91221 16.0251 6.67718 15.9622C6.44214 15.8993 6.19172 15.9329 5.98157 16.0555L5.97162 16.0613C5.44691 16.3555 4.82658 16.4283 4.24797 16.2639C3.67162 16.1 3.18396 15.7142 2.89198 15.1912L2.36793 14.2874C1.74645 13.2104 2.11491 11.8335 3.19123 11.2108C3.47821 11.0451 3.65551 10.7386 3.65551 10.4073C3.65551 10.0759 3.47872 9.76968 3.19174 9.60399L3.18985 9.6029C2.11369 8.97689 1.74616 7.59864 2.36772 6.5199L2.3758 6.50625L2.92885 5.59712C3.5532 4.52277 4.92847 4.15331 6.00754 4.77162L6.01639 4.77669C6.14549 4.85331 6.29235 4.89481 6.44241 4.89696C6.94627 4.89517 7.3565 4.49132 7.36639 3.98774C7.36558 3.39107 7.60149 2.8183 8.02253 2.39523C8.44541 1.97032 9.02018 1.73144 9.61966 1.73145H10.6647C10.6647 1.73145 10.6646 1.73145 10.6647 1.73145ZM11.3304 3.34579C11.1557 3.16604 10.9156 3.06468 10.6649 3.06478L9.61964 3.06478C9.3749 3.06478 9.14024 3.1623 8.9676 3.33578C8.79496 3.50925 8.69856 3.74437 8.69974 3.98911L8.6998 4.00189C8.68205 5.23784 7.67488 6.23043 6.4388 6.2303L6.43195 6.2303C6.04801 6.22631 5.67188 6.12152 5.3412 5.92653C4.898 5.67503 4.33448 5.82825 4.07983 6.27022L4.07174 6.28388L3.51958 7.19154C3.26936 7.6332 3.42077 8.19471 3.86028 8.45038L3.52507 9.02664L3.8584 8.44929C4.55792 8.85315 4.98884 9.59953 4.98884 10.4073C4.98884 11.2148 4.55813 11.961 3.85891 12.365C3.41966 12.6191 3.26918 13.1808 3.52249 13.6205C3.52239 13.6203 3.52259 13.6206 3.52249 13.6205L4.05489 14.5387C4.17451 14.7545 4.37511 14.9138 4.61248 14.9813C4.84843 15.0484 5.10126 15.0192 5.3157 14.9004C5.83172 14.6014 6.44558 14.52 7.02186 14.6742C7.5987 14.8286 8.09023 15.2063 8.3879 15.7238C8.58317 16.0547 8.68809 16.4311 8.69208 16.8153L8.69215 16.8222C8.69215 17.3345 9.10739 17.7498 9.61965 17.7498H10.6647C11.1744 17.7498 11.5884 17.3385 11.5922 16.8292C11.5903 16.2292 11.8278 15.6532 12.2521 15.2289C12.6774 14.8037 13.2549 14.5661 13.8563 14.569L13.8709 14.5691C14.2488 14.5792 14.6184 14.6828 14.9467 14.8704L14.9487 14.8716C15.3912 15.1266 15.9567 14.9758 16.2135 14.5343L16.218 14.5265L16.7648 13.6154C16.8865 13.4045 16.9197 13.1539 16.8569 12.9185C16.7938 12.6819 16.639 12.4802 16.4268 12.3581C15.907 12.0591 15.5278 11.5651 15.3733 10.9856C15.2189 10.4069 15.3014 9.79064 15.6023 9.27288C15.7988 8.93064 16.0826 8.64669 16.4247 8.44999C16.862 8.19276 17.0116 7.63168 16.7599 7.1908C16.7486 7.17091 16.7383 7.1505 16.7291 7.12966L16.2426 6.28552C15.9879 5.84331 15.4238 5.69012 14.9805 5.94219C14.4658 6.2439 13.8524 6.3292 13.2748 6.17922C12.6962 6.02899 12.201 5.655 11.8982 5.1396C11.7018 4.80799 11.5962 4.43044 11.5922 4.04501C11.5921 4.03632 11.5922 4.02763 11.5925 4.01894C11.5997 3.76836 11.5051 3.52554 11.3304 3.34579Z" fill="#333B48"/>
<path fill-rule="evenodd" clip-rule="evenodd" d="M10.1459 8.87695C9.30084 8.87695 8.61578 9.56202 8.61578 10.4071C8.61578 11.2522 9.30084 11.9372 10.1459 11.9372C10.991 11.9372 11.676 11.2522 11.676 10.4071C11.676 9.56202 10.991 8.87695 10.1459 8.87695ZM7.28244 10.4071C7.28244 8.82564 8.56446 7.54362 10.1459 7.54362C11.7274 7.54362 13.0094 8.82564 13.0094 10.4071C13.0094 11.9885 11.7274 13.2705 10.1459 13.2705C8.56446 13.2705 7.28244 11.9885 7.28244 10.4071Z" fill="#333B48"/>
</svg>
