<svg width="20" height="21" viewBox="0 0 20 21" fill="none" xmlns="http://www.w3.org/2000/svg">
<path fill-rule="evenodd" clip-rule="evenodd" d="M7.57122 3.78575H16.5712C16.6501 3.78575 16.7141 3.84971 16.7141 3.92861V12.9286C16.7141 13.0075 16.6501 13.0715 16.5712 13.0715H7.57122C7.49232 13.0715 7.42836 13.0075 7.42836 12.9286V3.92861C7.42836 3.84971 7.49232 3.78575 7.57122 3.78575ZM5.99979 3.92861C5.99979 3.06073 6.70334 2.35718 7.57122 2.35718H16.5712C17.4391 2.35718 18.1426 3.06073 18.1426 3.92861V12.9286C18.1426 13.7965 17.4391 14.5 16.5712 14.5H7.57122C6.70334 14.5 5.99979 13.7965 5.99979 12.9286V3.92861ZM3.2855 8.07146C3.2855 7.99256 3.34946 7.92861 3.42836 7.92861H5.2855V6.50003H3.42836C2.56049 6.50003 1.85693 7.20359 1.85693 8.07146V17.0715C1.85693 17.9393 2.56049 18.6429 3.42836 18.6429H12.4284C13.2962 18.6429 13.9998 17.9393 13.9998 17.0715V15.2143H12.5712V17.0715C12.5712 17.1504 12.5073 17.2143 12.4284 17.2143H3.42836C3.34946 17.2143 3.2855 17.1504 3.2855 17.0715V8.07146Z" fill="#333B48"/>
</svg>
