<svg width="20" height="20" viewBox="0 0 20 20" fill="none" xmlns="http://www.w3.org/2000/svg">
<path fill-rule="evenodd" clip-rule="evenodd" d="M4.02448 5.81277C4.76328 5.02016 5.81067 4.58325 7.03044 4.58325H12.9685C14.1909 4.58325 15.2388 5.01984 15.9774 5.81305C16.7104 6.60025 17.0832 7.67807 17.0832 8.86912V14.4641C17.0832 15.6551 16.7104 16.733 15.9773 17.5202C15.2386 18.3134 14.1905 18.7499 12.9679 18.7499H7.03044C5.80778 18.7499 4.75994 18.3134 4.02154 17.52C3.28879 16.7327 2.9165 15.6549 2.9165 14.4641V8.86912C2.9165 7.67724 3.29112 6.59955 4.02448 5.81277ZM5.11772 6.83178C4.68507 7.29594 4.41101 7.98756 4.41101 8.86912V14.4641C4.41101 15.3467 4.68398 16.0381 5.11552 16.5018C5.54142 16.9594 6.17692 17.2554 7.03044 17.2554H12.9679C13.8214 17.2554 14.4573 16.9594 14.8836 16.5016C15.3155 16.0379 15.5887 15.3464 15.5887 14.4641V8.86912C15.5887 7.98673 15.3155 7.29525 14.8837 6.8315C14.4574 6.37376 13.8217 6.07776 12.9685 6.07776H7.03044C6.18089 6.07776 5.54494 6.37344 5.11772 6.83178Z" fill="#333B48"/>
<path fill-rule="evenodd" clip-rule="evenodd" d="M9.90057 7.91659C10.306 7.91659 10.6346 8.24919 10.6346 8.65948V11.2074L12.5584 12.3689C12.9066 12.5791 13.0204 13.0352 12.8127 13.3875C12.605 13.7399 12.1544 13.8551 11.8062 13.6449L9.52448 12.2673C9.30248 12.1332 9.16651 11.8909 9.16651 11.6293V8.65948C9.16651 8.24919 9.49515 7.91659 9.90057 7.91659Z" fill="#333B48"/>
<path fill-rule="evenodd" clip-rule="evenodd" d="M6.45817 2.08325C6.45817 1.73807 6.73799 1.45825 7.08317 1.45825H12.9165C13.2617 1.45825 13.5415 1.73807 13.5415 2.08325C13.5415 2.42843 13.2617 2.70825 12.9165 2.70825H7.08317C6.73799 2.70825 6.45817 2.42843 6.45817 2.08325Z" fill="#333B48"/>
<path fill-rule="evenodd" clip-rule="evenodd" d="M9.99984 1.45825C10.345 1.45825 10.6248 1.73807 10.6248 2.08325V4.99992C10.6248 5.3451 10.345 5.62492 9.99984 5.62492C9.65466 5.62492 9.37484 5.3451 9.37484 4.99992V2.08325C9.37484 1.73807 9.65466 1.45825 9.99984 1.45825Z" fill="#333B48"/>
</svg>
