<svg width="20" height="20" viewBox="0 0 20 20" fill="none" xmlns="http://www.w3.org/2000/svg">
<path fill-rule="evenodd" clip-rule="evenodd" d="M3.00016 2.66671C2.81607 2.66671 2.66683 2.81595 2.66683 3.00004V17C2.66683 17.1841 2.81607 17.3334 3.00016 17.3334H17.0002C17.1843 17.3334 17.3335 17.1841 17.3335 17V3.00004C17.3335 2.81595 17.1843 2.66671 17.0002 2.66671H13.0002V1.33337H17.0002C17.9206 1.33337 18.6668 2.07957 18.6668 3.00004V17C18.6668 17.9205 17.9206 18.6667 17.0002 18.6667H3.00016C2.07969 18.6667 1.3335 17.9205 1.3335 17V3.00004C1.3335 2.07957 2.07969 1.33337 3.00016 1.33337H6.66683V2.66671H3.00016ZM9.33355 1.33337V11.8906L6.30495 8.86197L5.36214 9.80478L10.0002 14.4429L14.6383 9.80478L13.6955 8.86197L10.6669 11.8906V1.33337H9.33355Z" fill="#333B48"/>
</svg>
