<svg width="20" height="20" viewBox="0 0 20 20" fill="none" xmlns="http://www.w3.org/2000/svg">
<path fill-rule="evenodd" clip-rule="evenodd" d="M1.91905 1.71716C1.58433 1.71716 1.31299 1.98851 1.31299 2.32322C1.31299 2.65794 1.58433 2.92928 1.91905 2.92928H3.92115L6.81892 10.7703C7.14138 11.6428 7.97315 12.2222 8.90335 12.2222H14.6492C15.635 12.2222 16.5029 11.5728 16.7811 10.627L18.3077 5.43652C18.498 4.78958 18.013 4.14141 17.3387 4.14141H8.0245C7.68979 4.14141 7.41844 4.41275 7.41844 4.74747C7.41844 5.08218 7.68979 5.35353 8.0245 5.35353H17.0687L15.6182 10.285C15.4918 10.7149 15.0973 11.0101 14.6492 11.0101H8.90335C8.48053 11.0101 8.10246 10.7467 7.95588 10.3501L4.91177 2.11313C4.82383 1.87517 4.59698 1.71716 4.34329 1.71716H1.91905ZM7.97988 16.8687C8.64932 16.8687 9.192 16.3261 9.192 15.6566C9.192 14.9872 8.64932 14.4445 7.97988 14.4445C7.31044 14.4445 6.76776 14.9872 6.76776 15.6566C6.76776 16.3261 7.31044 16.8687 7.97988 16.8687ZM7.97988 18.0809C9.31875 18.0809 10.4041 16.9955 10.4041 15.6566C10.4041 14.3177 9.31875 13.2324 7.97988 13.2324C6.64101 13.2324 5.55564 14.3177 5.55564 15.6566C5.55564 16.9955 6.64101 18.0809 7.97988 18.0809ZM14.8483 16.8687C15.5178 16.8687 16.0604 16.3261 16.0604 15.6566C16.0604 14.9872 15.5178 14.4445 14.8483 14.4445C14.1789 14.4445 13.6362 14.9872 13.6362 15.6566C13.6362 16.3261 14.1789 16.8687 14.8483 16.8687ZM14.8483 18.0809C16.1872 18.0809 17.2726 16.9955 17.2726 15.6566C17.2726 14.3177 16.1872 13.2324 14.8483 13.2324C13.5095 13.2324 12.4241 14.3177 12.4241 15.6566C12.4241 16.9955 13.5095 18.0809 14.8483 18.0809Z" fill="#333B48"/>
</svg>
