<svg width="20" height="20" viewBox="0 0 20 20" fill="none" xmlns="http://www.w3.org/2000/svg">
<path fill-rule="evenodd" clip-rule="evenodd" d="M18.4296 4.53341C18.7602 4.86401 18.7602 5.40002 18.4296 5.73062L10.8105 13.3497C10.4862 13.674 9.96264 13.6811 9.62969 13.3656L5.60853 9.5561C5.26912 9.23455 5.25463 8.69874 5.57618 8.35932C5.89773 8.01991 6.43355 8.00543 6.77296 8.32698L10.196 11.5698L17.2323 4.53341C17.563 4.2028 18.099 4.2028 18.4296 4.53341Z" fill="#333B48"/>
<path fill-rule="evenodd" clip-rule="evenodd" d="M13.4339 3.6763C12.115 2.96013 10.6051 2.67429 9.11563 2.85879C7.62617 3.0433 6.23168 3.68891 5.12735 4.70525C4.02301 5.7216 3.26411 7.05782 2.95686 8.52687C2.64961 9.99592 2.80939 11.5243 3.41384 12.898C4.01829 14.2718 5.03715 15.4221 6.32782 16.1881C7.61849 16.954 9.11635 17.2973 10.6118 17.1697C12.1072 17.0422 13.5253 16.4502 14.6676 15.4767C15.8099 14.5033 16.6192 13.197 16.9823 11.7407C17.0954 11.287 17.5548 11.011 18.0085 11.1241C18.4621 11.2372 18.7382 11.6966 18.6251 12.1503C18.1766 13.9492 17.1769 15.5629 15.7658 16.7654C14.3547 17.9679 12.6029 18.6992 10.7557 18.8567C8.90839 19.0143 7.05808 18.5903 5.46373 17.6441C3.86937 16.6979 2.61078 15.2769 1.8641 13.5799C1.11743 11.8829 0.920049 9.99497 1.29959 8.18025C1.67914 6.36554 2.61661 4.71492 3.98079 3.45943C5.34497 2.20395 7.06757 1.40643 8.90749 1.17852C10.7474 0.950601 12.6125 1.30369 14.2418 2.18838C14.6527 2.41148 14.8049 2.92542 14.5818 3.3363C14.3587 3.74718 13.8448 3.8994 13.4339 3.6763Z" fill="#333B48"/>
</svg>
