<svg width="20" height="20" viewBox="0 0 20 20" fill="none" xmlns="http://www.w3.org/2000/svg">
<path d="M1.6665 10.0502C1.66747 14.175 4.6484 17.687 8.69709 18.3334V12.4734H6.583V10.0502H8.69959V8.20561C8.60497 7.33155 8.90169 6.46043 9.50926 5.82851C10.1168 5.19659 10.9723 4.86938 11.8437 4.9356C12.4691 4.94577 13.0929 5.00181 13.7103 5.1033V7.16508H12.657C12.2943 7.11729 11.9298 7.23779 11.666 7.49264C11.4022 7.74749 11.2676 8.10909 11.3003 8.4756V10.0502H13.6094L13.2403 12.4742H11.3003V18.3334C15.6789 17.6372 18.7493 13.6135 18.2872 9.17745C17.825 4.74139 13.9921 1.44586 9.56525 1.67832C5.13835 1.91079 1.66721 5.58986 1.6665 10.0502Z" fill="#333B48"/>
</svg>
