<svg width="22" height="22" viewBox="0 0 22 22" fill="none" xmlns="http://www.w3.org/2000/svg">
<g clip-path="url(#clip0_4082_12517)">
<path d="M10.9999 0.275024C5.0764 0.275024 0.274902 5.07652 0.274902 11C0.274902 16.9235 5.0764 21.725 10.9999 21.725C16.9234 21.725 21.7249 16.9235 21.7249 11C21.7139 5.08202 16.9179 0.286024 10.9999 0.275024ZM16.105 9.12342L10.0616 14.8984C9.9054 15.0447 9.6986 15.1261 9.4841 15.125C9.2718 15.1283 9.0683 15.0469 8.9165 14.8984L5.8948 12.0109C5.6671 11.8118 5.5659 11.5038 5.633 11.2079C5.699 10.912 5.9223 10.6766 6.2138 10.5952C6.5053 10.5127 6.8188 10.5974 7.03 10.8141L9.4841 13.1549L14.9698 7.92662C15.3031 7.63622 15.8069 7.66042 16.1116 7.98052C16.4152 8.30172 16.413 8.80552 16.105 9.12342Z" fill="#FB8600"/>
</g>
<defs>
<clipPath id="clip0_4082_12517">
<rect width="22" height="22" fill="white"/>
</clipPath>
</defs>
</svg>
