<svg width="20" height="20" viewBox="0 0 20 20" fill="none" xmlns="http://www.w3.org/2000/svg">
<path d="M14.999 1.81824C16.7163 1.81824 18.1177 3.2205 18.1177 4.93688V15.0641C18.1177 16.7805 16.7163 18.1819 14.999 18.1819H5.00048C3.2841 18.1819 1.88184 16.7796 1.88184 15.0641V4.93688C1.88184 3.2205 3.2841 1.81824 5.00048 1.81824H14.9999H14.999ZM14.999 2.98829H5.00048C3.92943 2.98829 3.05099 3.86673 3.05099 4.93688V15.0641C3.05099 16.1334 3.93033 17.0118 5.00048 17.0118H14.9999C16.0701 17.0118 16.9476 16.1343 16.9476 15.0641V4.93688C16.9476 3.86583 16.0701 2.98829 14.999 2.98829ZM7.6394 7.7603C7.86531 7.50829 8.25682 7.50019 8.49353 7.7423L12.9514 12.2992L15.1691 10.0068C15.3716 9.7971 15.6912 9.7719 15.9234 9.9321L15.9972 9.9924C16.2294 10.2174 16.2348 10.5873 16.0107 10.8204L13.7696 13.1353L15.4914 14.894C15.6948 15.1019 15.7119 15.4232 15.5454 15.6501L15.4824 15.7221C15.251 15.9471 14.8811 15.9435 14.6543 15.7131L8.09302 9.00596L4.60806 12.8905C4.39205 13.1308 4.02303 13.1515 3.78182 12.9355C3.54151 12.7195 3.52081 12.3505 3.73682 12.1093L7.6394 7.7603ZM12.8191 4.46616C14.036 4.46616 15.0188 5.4652 15.0188 6.69466C15.0188 7.92321 14.036 8.92406 12.8191 8.92406C11.6023 8.92406 10.6194 7.92321 10.6194 6.69466C10.6194 5.4661 11.6023 4.46616 12.8191 4.46616ZM12.8191 5.63621C12.2521 5.63621 11.7895 6.10783 11.7895 6.69466C11.7895 7.28148 12.253 7.754 12.8191 7.754C13.3853 7.754 13.8488 7.28238 13.8488 6.69466C13.8488 6.10693 13.3853 5.63621 12.8191 5.63621Z" fill="#333B48"/>
</svg>
