<svg width="20" height="20" viewBox="0 0 20 20" fill="none" xmlns="http://www.w3.org/2000/svg">
<path fill-rule="evenodd" clip-rule="evenodd" d="M2.5 9.5835V17.5002H5V9.5835H2.5ZM2.08333 8.3335C1.6231 8.3335 1.25 8.7066 1.25 9.16683V17.9168C1.25 18.3771 1.6231 18.7502 2.08333 18.7502H5.41667C5.8769 18.7502 6.25 18.3771 6.25 17.9168V9.16683C6.25 8.7066 5.8769 8.3335 5.41667 8.3335H2.08333Z" fill="#333B48"/>
<path fill-rule="evenodd" clip-rule="evenodd" d="M8.75 6.25008V17.5001H11.25V6.25008H8.75ZM8.33333 5.00008C7.8731 5.00008 7.5 5.37318 7.5 5.83341V17.9167C7.5 18.377 7.8731 18.7501 8.33333 18.7501H11.6667C12.1269 18.7501 12.5 18.377 12.5 17.9167V5.83341C12.5 5.37318 12.1269 5.00008 11.6667 5.00008H8.33333Z" fill="#333B48"/>
<path fill-rule="evenodd" clip-rule="evenodd" d="M15 2.91675V17.5001H17.5V2.91675H15ZM14.5833 1.66675C14.1231 1.66675 13.75 2.03984 13.75 2.50008V17.9167C13.75 18.377 14.1231 18.7501 14.5833 18.7501H17.9167C18.3769 18.7501 18.75 18.377 18.75 17.9167V2.50008C18.75 2.03984 18.3769 1.66675 17.9167 1.66675H14.5833Z" fill="#333B48"/>
</svg>
