<svg width="20" height="20" viewBox="0 0 20 20" fill="none" xmlns="http://www.w3.org/2000/svg">
<g clip-path="url(#clip0_4209_12885)">
<path d="M10.0002 0.833252C8.18717 0.833252 6.41489 1.37087 4.90744 2.37811C3.39999 3.38536 2.22507 4.817 1.53127 6.49199C0.837468 8.16698 0.655937 10.0101 1.00964 11.7882C1.36333 13.5664 2.23637 15.1997 3.51835 16.4817C4.80034 17.7637 6.43368 18.6367 8.21184 18.9904C9.99 19.3441 11.8331 19.1626 13.5081 18.4688C15.1831 17.775 16.6147 16.6001 17.622 15.0926C18.6292 13.5852 19.1668 11.8129 19.1668 9.99992C19.164 7.56965 18.1973 5.23974 16.4788 3.52127C14.7603 1.80281 12.4304 0.836119 10.0002 0.833252ZM10.0002 17.4999C8.51681 17.4999 7.06676 17.06 5.83339 16.2359C4.60002 15.4118 3.63873 14.2405 3.07107 12.87C2.50341 11.4996 2.35489 9.9916 2.64428 8.53674C2.93367 7.08188 3.64797 5.74551 4.69686 4.69662C5.74576 3.64772 7.08213 2.93342 8.53699 2.64403C9.99185 2.35464 11.4998 2.50316 12.8703 3.07082C14.2407 3.63848 15.4121 4.59977 16.2362 5.83314C17.0603 7.06651 17.5002 8.51656 17.5002 9.99992C17.4977 11.9883 16.7068 13.8945 15.3008 15.3005C13.8948 16.7065 11.9885 17.4975 10.0002 17.4999Z" fill="#333B48"/>
<path d="M9.99996 13.7503C10.4602 13.7503 10.8333 14.1234 10.8333 14.5836C10.8333 15.0438 10.4602 15.4169 9.99996 15.4169C9.53972 15.4169 9.16663 15.0438 9.16663 14.5836C9.16663 14.1234 9.53972 13.7503 9.99996 13.7503ZM13.3333 7.91693C13.3343 8.41671 13.2223 8.91026 13.0059 9.36075C12.7895 9.81123 12.4741 10.207 12.0833 10.5186C11.5631 10.9217 11.1818 11.4723 10.9856 12.0935C10.9126 12.3247 10.7091 12.5003 10.4667 12.5003H9.75308C9.45437 12.5003 9.22031 12.2391 9.28839 11.9482C9.39265 11.5028 9.55971 11.0734 9.78531 10.6732C10.1029 10.1099 10.5301 9.61587 11.0416 9.22026C11.2471 9.05606 11.4107 8.84554 11.5192 8.60594C11.6277 8.36634 11.6779 8.10446 11.6657 7.84173C11.6535 7.579 11.5792 7.3229 11.449 7.09437C11.3189 6.86584 11.1364 6.67139 10.9166 6.52693C10.6718 6.36693 10.3902 6.27221 10.0985 6.25179C9.80674 6.23137 9.51465 6.28592 9.24996 6.41026C8.96769 6.54567 8.73081 6.76013 8.56808 7.02759C8.40536 7.29505 8.32379 7.604 8.33329 7.91693C8.33329 8.13794 8.24549 8.3499 8.08921 8.50618C7.93293 8.66246 7.72097 8.75026 7.49996 8.75026C7.27895 8.75026 7.06698 8.66246 6.9107 8.50618C6.75442 8.3499 6.66663 8.13794 6.66663 7.91693C6.65423 7.27646 6.83094 6.64655 7.17467 6.10598C7.51839 5.56542 8.01387 5.1382 8.59913 4.87776C9.11792 4.64591 9.68674 4.54842 10.2531 4.5943C10.8195 4.64018 11.3652 4.82794 11.84 5.14026C12.2987 5.44387 12.6752 5.85633 12.9358 6.34083C13.1963 6.82533 13.3329 7.3668 13.3333 7.91693Z" fill="#333B48"/>
</g>
<defs>
<clipPath id="clip0_4209_12885">
<rect width="20" height="20" fill="white"/>
</clipPath>
</defs>
</svg>
