<svg width="20" height="20" viewBox="0 0 20 20" fill="none" xmlns="http://www.w3.org/2000/svg">
<g clip-path="url(#clip0_4209_12916)">
<path d="M10.1481 0.90918C5.21797 0.90918 1.20702 4.8928 1.20702 9.79011C1.20702 11.2668 1.57413 12.7143 2.27375 14.0015L0.957413 17.8876C0.847187 18.2128 0.929174 18.5718 1.16967 18.8177C1.34366 18.9963 1.5796 19.091 1.82009 19.091C1.9121 19.091 2.00502 19.0773 2.09611 19.0482L6.18176 17.751C7.407 18.3522 8.7698 18.6692 10.1481 18.6692C15.0791 18.6692 19.091 14.6865 19.091 9.79011C19.091 4.8928 15.0791 0.90918 10.1481 0.90918ZM10.1463 16.8482C8.94015 16.8482 7.74952 16.5449 6.70374 15.9701C6.56892 15.8963 6.4177 15.858 6.26557 15.858C6.17356 15.858 6.08065 15.8717 5.98864 15.9008L3.2585 16.7671L4.12937 14.1982C4.21591 13.9432 4.18494 13.6617 4.04465 13.4312C3.37874 12.3381 3.02711 11.0791 3.02711 9.79102C3.02711 5.89941 6.22093 2.73201 10.1463 2.73201C14.0725 2.73201 17.2672 5.89941 17.2672 9.79102C17.2672 13.6817 14.0734 16.8482 10.1463 16.8482Z" fill="#535D6E"/>
<path d="M14.203 11.6248C14.1529 11.5437 14.0227 11.4936 13.8268 11.3961C13.63 11.3005 12.6608 10.8268 12.4813 10.7612C12.403 10.7329 12.3337 10.7102 12.27 10.7102C12.1862 10.7102 12.1115 10.7484 12.0377 10.8587C11.9065 11.0545 11.5285 11.4936 11.4146 11.6248C11.3499 11.6995 11.2834 11.7368 11.2032 11.7368C11.1431 11.7368 11.073 11.7159 10.9892 11.673C10.7906 11.5774 10.1566 11.3697 9.40501 10.7056C8.82018 10.1873 8.42482 9.54778 8.30913 9.35193C8.19435 9.15789 8.29729 9.05131 8.39658 8.95475C8.48494 8.86456 8.59244 8.72519 8.69264 8.61132C8.79103 8.49745 8.82382 8.41637 8.8885 8.28611C8.95318 8.15584 8.92129 8.04106 8.87119 7.94358C8.82291 7.84611 8.42938 6.88505 8.26358 6.49334C8.14151 6.20183 8.01853 6.16448 7.91651 6.16448C7.88189 6.16448 7.8491 6.16904 7.81994 6.16904C7.70699 6.16904 7.57672 6.15173 7.44372 6.15173C7.31254 6.15173 7.10029 6.20092 6.91901 6.39769C6.73955 6.59172 6.22941 7.06451 6.22941 8.02557C6.22941 8.98754 6.93449 9.9149 7.0347 10.0452C7.13217 10.1763 8.39658 12.2123 10.397 12.9949C11.5567 13.4485 12.045 13.5514 12.3201 13.5514C12.5205 13.5514 12.6079 13.4968 12.7601 13.4831C13.1199 13.4512 13.9243 13.0094 14.0892 12.5539C14.2531 12.0985 14.2531 11.7058 14.203 11.6248Z" fill="#535D6E"/>
</g>
<defs>
<clipPath id="clip0_4209_12916">
<rect width="20" height="20" fill="white"/>
</clipPath>
</defs>
</svg>
