<svg width="22" height="22" viewBox="0 0 22 22" fill="none" xmlns="http://www.w3.org/2000/svg">
<path fill-rule="evenodd" clip-rule="evenodd" d="M11.8169 7.79357C11.7396 7.97461 11.6044 8.12487 11.4325 8.22078C11.9024 9.45693 12.3943 10.0655 12.8269 10.1141C13.3187 10.1686 13.7673 9.94404 14.2076 9.38997C14.2312 9.36019 14.2583 9.33333 14.2882 9.30997C14.1684 9.14965 14.1062 8.9536 14.1117 8.75354C14.1171 8.55347 14.1899 8.36111 14.3183 8.20758C14.4467 8.05405 14.6232 7.94835 14.8191 7.90757C15.0151 7.8668 15.219 7.89334 15.398 7.9829C15.577 8.07247 15.7205 8.21981 15.8053 8.40108C15.8901 8.58236 15.9113 8.78695 15.8654 8.98175C15.8195 9.17655 15.7092 9.35016 15.5523 9.47446C15.3955 9.59877 15.2012 9.66651 15.0011 9.66671C15.0005 9.70308 14.9957 9.73926 14.9869 9.77456L14.2663 12.6569C14.1941 12.9454 14.0276 13.2015 13.7932 13.3844C13.5588 13.5674 13.27 13.6667 12.9727 13.6667H9.02718C8.72983 13.6667 8.441 13.5674 8.20661 13.3844C7.97222 13.2015 7.80571 12.9454 7.73355 12.6569L7.01296 9.77456C7.00407 9.73782 6.99874 9.70108 6.99874 9.66671C6.79862 9.66637 6.60448 9.59852 6.44772 9.47414C6.29096 9.34976 6.18075 9.17612 6.13494 8.98132C6.08912 8.78652 6.11038 8.58197 6.19527 8.40075C6.28016 8.21953 6.42371 8.07226 6.60269 7.98277C6.78168 7.89328 6.98563 7.8668 7.18153 7.90762C7.37744 7.94844 7.55384 8.05417 7.68219 8.2077C7.81054 8.36123 7.88333 8.55357 7.88878 8.75361C7.89423 8.95365 7.83202 9.14968 7.71222 9.30997C7.74447 9.3352 7.77335 9.36448 7.79814 9.39708C8.21711 9.94819 8.66214 10.1704 9.17296 10.1141C9.62629 10.0637 10.1158 9.45752 10.5673 8.22137C10.3953 8.12569 10.2599 7.97562 10.1824 7.79469C10.1048 7.61377 10.0895 7.41222 10.1389 7.22167C10.1883 7.03112 10.2995 6.86234 10.4551 6.7418C10.6107 6.62127 10.8019 6.5558 10.9988 6.55566C11.1956 6.55553 11.3869 6.62074 11.5427 6.74106C11.6985 6.86138 11.81 7.03001 11.8596 7.22049C11.9092 7.41098 11.8942 7.61254 11.8169 7.79357ZM8.33368 14.5558H13.667C13.7849 14.5558 13.8979 14.6026 13.9813 14.6859C14.0646 14.7693 14.1115 14.8823 14.1115 15.0002C14.1115 15.1181 14.0646 15.2311 13.9813 15.3145C13.8979 15.3978 13.7849 15.4446 13.667 15.4446H8.33368C8.21581 15.4446 8.10276 15.3978 8.01941 15.3145C7.93606 15.2311 7.88923 15.1181 7.88923 15.0002C7.88923 14.8823 7.93606 14.7693 8.01941 14.6859C8.10276 14.6026 8.21581 14.5558 8.33368 14.5558Z" fill="#FB8600"/>
<path fill-rule="evenodd" clip-rule="evenodd" d="M11.0002 18.5778C15.1853 18.5778 18.5779 15.1851 18.5779 11C18.5779 6.81495 15.1853 3.42226 11.0002 3.42226C6.81507 3.42226 3.42238 6.81495 3.42238 11C3.42238 15.1851 6.81507 18.5778 11.0002 18.5778ZM11.0002 20.1667C16.0628 20.1667 20.1668 16.0626 20.1668 11C20.1668 5.93743 16.0628 1.83337 11.0002 1.83337C5.93755 1.83337 1.8335 5.93743 1.8335 11C1.8335 16.0626 5.93755 20.1667 11.0002 20.1667Z" fill="#FB8600"/>
</svg>
