<svg width="22" height="22" viewBox="0 0 22 22" fill="none" xmlns="http://www.w3.org/2000/svg">
<path d="M10.8517 12.9434L9.18566 14.2073C8.9964 14.3509 8.73427 14.1674 8.80435 13.9404L9.4487 11.8536C9.47839 11.7575 9.44613 11.653 9.36744 11.5903L7.6356 10.2108C7.45466 10.0667 7.55657 9.77519 7.7879 9.77519H9.87291C9.97889 9.77519 10.0728 9.70688 10.1055 9.60605L10.7672 7.56257C10.8403 7.33705 11.1593 7.33705 11.2323 7.56257L11.8941 9.60605C11.9268 9.70688 12.0207 9.77519 12.1267 9.77519H14.2093C14.4409 9.77519 14.5426 10.0672 14.3612 10.2112L12.6222 11.5903C12.5432 11.653 12.5108 11.7577 12.5405 11.854L13.184 13.9378C13.2541 14.1651 12.9914 14.3485 12.8023 14.2044L11.1476 12.9437C11.0602 12.8771 10.9392 12.877 10.8517 12.9434Z" fill="#0051FF"/>
<path fill-rule="evenodd" clip-rule="evenodd" d="M11.0001 17.3555C14.5102 17.3555 17.3557 14.5101 17.3557 11C17.3557 7.48991 14.5102 4.64443 11.0001 4.64443C7.49003 4.64443 4.64455 7.48991 4.64455 11C4.64455 14.5101 7.49003 17.3555 11.0001 17.3555ZM11.0001 18.9444C15.3877 18.9444 18.9446 15.3876 18.9446 11C18.9446 6.61239 15.3877 3.05554 11.0001 3.05554C6.61251 3.05554 3.05566 6.61239 3.05566 11C3.05566 15.3876 6.61251 18.9444 11.0001 18.9444Z" fill="#0051FF"/>
</svg>
