<svg width="22" height="23" viewBox="0 0 22 23" fill="none" xmlns="http://www.w3.org/2000/svg">
<path d="M10.8517 13.4626L9.18566 14.7265C8.9964 14.87 8.73427 14.6866 8.80435 14.4596L9.4487 12.3728C9.47839 12.2767 9.44613 12.1722 9.36744 12.1095L7.6356 10.73C7.45466 10.5859 7.55657 10.2944 7.7879 10.2944H9.87291C9.97889 10.2944 10.0728 10.226 10.1055 10.1252L10.7672 8.08173C10.8403 7.85622 11.1593 7.85622 11.2323 8.08173L11.8941 10.1252C11.9268 10.226 12.0207 10.2944 12.1267 10.2944H14.2093C14.4409 10.2944 14.5426 10.5864 14.3612 10.7303L12.6222 12.1095C12.5432 12.1721 12.5108 12.2768 12.5405 12.3732L13.184 14.457C13.2541 14.6842 12.9914 14.8677 12.8023 14.7236L11.1476 13.4629C11.0602 13.3963 10.9392 13.3962 10.8517 13.4626Z" fill="#0051FF"/>
<path fill-rule="evenodd" clip-rule="evenodd" d="M11.0001 17.8747C14.5102 17.8747 17.3557 15.0292 17.3557 11.5192C17.3557 8.00908 14.5102 5.1636 11.0001 5.1636C7.49003 5.1636 4.64455 8.00908 4.64455 11.5192C4.64455 15.0292 7.49003 17.8747 11.0001 17.8747ZM11.0001 19.4636C15.3877 19.4636 18.9446 15.9067 18.9446 11.5192C18.9446 7.13156 15.3877 3.57471 11.0001 3.57471C6.61251 3.57471 3.05566 7.13156 3.05566 11.5192C3.05566 15.9067 6.61251 19.4636 11.0001 19.4636Z" fill="#0051FF"/>
</svg>
