<svg width="20" height="20" viewBox="0 0 20 20" fill="none" xmlns="http://www.w3.org/2000/svg">
<path d="M8.0515 4.75568C10.3727 4.75568 12.2538 6.63679 12.2538 8.95712C12.2538 10.921 10.9065 12.5699 9.08566 13.0308L10.6238 13.029C12.6427 13.029 14.2925 14.6788 14.2925 16.6985V17.5967C14.2925 17.9207 14.0305 18.1818 13.7074 18.1818C13.3834 18.1818 13.1224 17.9207 13.1224 17.5967V16.6985C13.1224 15.325 11.9964 14.199 10.6238 14.199H5.48006C4.10658 14.199 2.98061 15.325 2.98061 16.6985V17.5967C2.98061 17.9207 2.7187 18.1818 2.39558 18.1818C2.07156 18.1818 1.81055 17.9207 1.81055 17.5967V16.6985C1.81055 14.6788 3.46034 13.029 5.48006 13.029L7.01734 13.0308C5.19744 12.5699 3.85096 10.921 3.85096 8.95712C3.85096 6.63679 5.73207 4.75568 8.0515 4.75568ZM14.5193 10.0507C16.539 10.0507 18.1897 11.7005 18.1897 13.7202V14.6175C18.1897 14.9407 17.9269 15.2026 17.6046 15.2026C17.2806 15.2026 17.0196 14.9407 17.0196 14.6175V13.7202C17.0196 12.3467 15.8928 11.2208 14.5193 11.2208H13.2106C12.8884 11.2208 12.6256 10.9588 12.6256 10.6357C12.6256 10.3117 12.8884 10.0507 13.2106 10.0507H14.5193ZM8.0515 5.92575C6.37741 5.92575 5.02103 7.28303 5.02103 8.95712C5.02103 10.6312 6.37741 11.9885 8.0515 11.9885C9.7256 11.9885 11.0838 10.6321 11.0838 8.95712C11.0838 7.28303 9.7265 5.92485 8.0506 5.92485L8.0515 5.92575ZM11.6247 1.83231C13.9378 1.6433 15.9648 3.3633 16.1547 5.67733C16.2816 7.23082 15.5426 8.70331 14.2619 9.53856C13.9918 9.71587 13.6291 9.63936 13.4518 9.36935C13.2754 9.09933 13.3519 8.73661 13.6228 8.5593C14.5481 7.95626 15.0809 6.8942 14.9891 5.77274C14.8514 4.10314 13.3888 2.86197 11.7192 2.99788C10.9002 3.06539 10.1585 3.45691 9.64009 4.07614C9.43308 4.32456 9.06406 4.35786 8.81655 4.14995C8.56813 3.94294 8.53573 3.57391 8.74274 3.3264C9.46008 2.46775 10.4888 1.92502 11.6247 1.83231Z" fill="#333B48"/>
</svg>
