<svg width="22" height="23" viewBox="0 0 22 23" fill="none" xmlns="http://www.w3.org/2000/svg">
<path fill-rule="evenodd" clip-rule="evenodd" d="M11.8169 8.31262C11.7396 8.49365 11.6044 8.64391 11.4325 8.73982C11.9024 9.97597 12.3943 10.5846 12.8269 10.6332C13.3187 10.6877 13.7673 10.4631 14.2076 9.90901C14.2312 9.87923 14.2583 9.85237 14.2882 9.82901C14.1684 9.6687 14.1062 9.47264 14.1117 9.27258C14.1171 9.07252 14.1899 8.88015 14.3183 8.72662C14.4467 8.5731 14.6232 8.46739 14.8191 8.42661C15.0151 8.38584 15.219 8.41238 15.398 8.50195C15.577 8.59151 15.7205 8.73885 15.8053 8.92013C15.8901 9.1014 15.9113 9.306 15.8654 9.5008C15.8195 9.6956 15.7092 9.8692 15.5523 9.99351C15.3955 10.1178 15.2012 10.1855 15.0011 10.1857C15.0005 10.2221 14.9957 10.2583 14.9869 10.2936L14.2663 13.176C14.1941 13.4644 14.0276 13.7205 13.7932 13.9035C13.5588 14.0864 13.27 14.1858 12.9727 14.1857H9.02718C8.72983 14.1858 8.441 14.0864 8.20661 13.9035C7.97222 13.7205 7.80571 13.4644 7.73355 13.176L7.01296 10.2936C7.00407 10.2569 6.99874 10.2201 6.99874 10.1857C6.79862 10.1854 6.60448 10.1176 6.44772 9.99318C6.29096 9.8688 6.18075 9.69516 6.13494 9.50036C6.08912 9.30557 6.11038 9.10101 6.19527 8.91979C6.28016 8.73858 6.42371 8.59131 6.60269 8.50181C6.78168 8.41232 6.98563 8.38584 7.18153 8.42666C7.37744 8.46748 7.55384 8.57321 7.68219 8.72674C7.81054 8.88027 7.88333 9.07262 7.88878 9.27265C7.89423 9.47269 7.83202 9.66872 7.71222 9.82901C7.74447 9.85425 7.77335 9.88352 7.79814 9.91612C8.21711 10.4672 8.66214 10.6895 9.17296 10.6332C9.62629 10.5828 10.1158 9.97656 10.5673 8.74041C10.3953 8.64474 10.2599 8.49466 10.1824 8.31374C10.1048 8.13281 10.0895 7.93126 10.1389 7.74071C10.1883 7.55016 10.2995 7.38138 10.4551 7.26084C10.6107 7.14031 10.8019 7.07484 10.9988 7.07471C11.1956 7.07457 11.3869 7.13978 11.5427 7.2601C11.6985 7.38042 11.81 7.54905 11.8596 7.73953C11.9092 7.93002 11.8942 8.13159 11.8169 8.31262ZM8.33368 15.0748H13.667C13.7849 15.0748 13.8979 15.1216 13.9813 15.205C14.0646 15.2883 14.1115 15.4014 14.1115 15.5192C14.1115 15.6371 14.0646 15.7502 13.9813 15.8335C13.8979 15.9169 13.7849 15.9637 13.667 15.9637H8.33368C8.21581 15.9637 8.10276 15.9169 8.01941 15.8335C7.93606 15.7502 7.88923 15.6371 7.88923 15.5192C7.88923 15.4014 7.93606 15.2883 8.01941 15.205C8.10276 15.1216 8.21581 15.0748 8.33368 15.0748Z" fill="#FB8600"/>
<path fill-rule="evenodd" clip-rule="evenodd" d="M10.9997 19.097C15.1848 19.097 18.5775 15.7043 18.5775 11.5192C18.5775 7.33411 15.1848 3.94143 10.9997 3.94143C6.81458 3.94143 3.4219 7.33411 3.4219 11.5192C3.4219 15.7043 6.81458 19.097 10.9997 19.097ZM10.9997 20.6859C16.0623 20.6859 20.1663 16.5818 20.1663 11.5192C20.1663 6.45659 16.0623 2.35254 10.9997 2.35254C5.93706 2.35254 1.83301 6.45659 1.83301 11.5192C1.83301 16.5818 5.93706 20.6859 10.9997 20.6859Z" fill="#FB8600"/>
</svg>
