<svg width="20" height="20" viewBox="0 0 20 20" fill="none" xmlns="http://www.w3.org/2000/svg">
<path fill-rule="evenodd" clip-rule="evenodd" d="M6.9645 10.4465V3.30361H13.0359V10.4465H6.9645ZM6.78592 2.23218C6.29281 2.23218 5.89307 2.63192 5.89307 3.12503V5.62503H5.35735C3.58215 5.62503 2.14307 7.06412 2.14307 8.83932V14.9107C2.14307 16.6859 3.58215 18.125 5.35735 18.125H14.6431C16.4183 18.125 17.8574 16.686 17.8574 14.9107V8.83932C17.8574 7.06412 16.4183 5.62503 14.6431 5.62503H14.1074V3.12503C14.1074 2.63192 13.7076 2.23218 13.2145 2.23218H6.78592ZM14.1074 6.69646H14.6431C15.8265 6.69646 16.7859 7.65585 16.7859 8.83932V14.9107C16.7859 16.0942 15.8265 17.0536 14.6431 17.0536H5.35735C4.17389 17.0536 3.2145 16.0942 3.2145 14.9107V8.83932C3.2145 7.65585 4.17388 6.69646 5.35735 6.69646H5.89307V10.625C5.89307 11.1181 6.29281 11.5179 6.78592 11.5179H13.2145C13.7076 11.5179 14.1074 11.1181 14.1074 10.625V6.69646Z" fill="#333B48"/>
<path d="M5.00021 14.375C5.00021 13.8819 5.39996 13.4822 5.89307 13.4822C6.38618 13.4822 6.78592 13.8819 6.78592 14.375C6.78592 14.8681 6.38618 15.2679 5.89307 15.2679C5.39996 15.2679 5.00021 14.8681 5.00021 14.375Z" fill="#333B48"/>
</svg>
