<svg width="20" height="20" viewBox="0 0 20 20" fill="none" xmlns="http://www.w3.org/2000/svg">
<path d="M5.2942 15.2941C5.2942 16.1063 4.6358 16.7647 3.82362 16.7647C3.01143 16.7647 2.35303 16.1063 2.35303 15.2941C2.35303 14.4819 3.01143 13.8235 3.82362 13.8235C4.6358 13.8235 5.2942 14.4819 5.2942 15.2941Z" fill="#4D596A"/>
<path d="M5.2942 10C5.2942 10.8122 4.6358 11.4706 3.82362 11.4706C3.01143 11.4706 2.35303 10.8122 2.35303 10C2.35303 9.18782 3.01143 8.52942 3.82362 8.52942C4.6358 8.52942 5.2942 9.18782 5.2942 10Z" fill="#4D596A"/>
<path d="M5.2942 4.70594C5.2942 5.51812 4.6358 6.17653 3.82362 6.17653C3.01143 6.17653 2.35303 5.51812 2.35303 4.70594C2.35303 3.89376 3.01143 3.23535 3.82362 3.23535C4.6358 3.23535 5.2942 3.89376 5.2942 4.70594Z" fill="#4D596A"/>
<path d="M16.9117 14.5588C17.3178 14.5588 17.647 14.888 17.647 15.2941C17.647 15.7002 17.3178 16.0294 16.9117 16.0294L7.79403 16.0294C7.38794 16.0294 7.05874 15.7002 7.05874 15.2941C7.05874 14.888 7.38794 14.5588 7.79403 14.5588L16.9117 14.5588Z" fill="#4D596A"/>
<path d="M16.9117 3.97058C17.3178 3.97058 17.647 4.29978 17.647 4.70587C17.647 5.11197 17.3178 5.44117 16.9117 5.44117L7.79403 5.44117C7.38794 5.44117 7.05874 5.11197 7.05874 4.70587C7.05874 4.29978 7.38794 3.97058 7.79403 3.97058L16.9117 3.97058Z" fill="#4D596A"/>
<path d="M16.9117 9.26465C17.3178 9.26465 17.647 9.59385 17.647 9.99994C17.647 10.406 17.3178 10.7352 16.9117 10.7352L7.79403 10.7352C7.38794 10.7352 7.05874 10.406 7.05874 9.99994C7.05874 9.59385 7.38794 9.26465 7.79403 9.26465L16.9117 9.26465Z" fill="#4D596A"/>
</svg>
