<svg width="20" height="20" viewBox="0 0 20 20" fill="none" xmlns="http://www.w3.org/2000/svg">
<path fill-rule="evenodd" clip-rule="evenodd" d="M7.82932 8.74259C8.32729 8.11747 8.59895 7.34217 8.60008 6.54295V4.00927C8.60008 3.07227 8.22786 2.17365 7.5653 1.5111C6.90275 0.848539 6.00413 0.476318 5.06713 0.476318C4.13013 0.476318 3.23151 0.848539 2.56896 1.5111C1.9064 2.17365 1.53418 3.07227 1.53418 4.00927V6.54295C1.53531 7.34217 1.80698 8.11747 2.30494 8.74259C2.80291 9.36771 3.49785 9.80584 4.27658 9.98562V18.7827C4.27658 18.9924 4.35987 19.1935 4.50813 19.3417C4.65639 19.49 4.85746 19.5733 5.06713 19.5733C5.2768 19.5733 5.47788 19.49 5.62614 19.3417C5.77439 19.1935 5.85768 18.9924 5.85768 18.7827V9.98562C6.63642 9.80584 7.33135 9.36771 7.82932 8.74259ZM17.7269 8.74258C18.2249 8.11746 18.4965 7.34217 18.4977 6.54295V2.00819C18.4977 1.79852 18.4144 1.59744 18.2661 1.44919C18.1179 1.30093 17.9168 1.21764 17.7071 1.21764C17.4975 1.21764 17.2964 1.30093 17.1481 1.44919C16.9999 1.59744 16.9166 1.79852 16.9166 2.00819V6.54295C16.9161 6.9206 16.8061 7.29 16.6 7.60645C16.3939 7.9229 16.1005 8.17282 15.7553 8.32597V2.19711C15.7553 1.98745 15.672 1.78637 15.5237 1.63811C15.3755 1.48985 15.1744 1.40656 14.9647 1.40656C14.7551 1.40656 14.554 1.48985 14.4057 1.63811C14.2575 1.78637 14.1742 1.98745 14.1742 2.19711V8.32597C13.829 8.17282 13.5356 7.9229 13.3295 7.60645C13.1234 7.29 13.0134 6.9206 13.0129 6.54295V2.00819C13.0129 1.79852 12.9296 1.59744 12.7813 1.44919C12.6331 1.30093 12.432 1.21764 12.2223 1.21764C12.0127 1.21764 11.8116 1.30093 11.6633 1.44919C11.5151 1.59744 11.4318 1.79852 11.4318 2.00819V6.54295C11.4329 7.34217 11.7046 8.11746 12.2026 8.74258C12.7005 9.3677 13.3954 9.80583 14.1742 9.98562V18.7827C14.1742 18.9924 14.2575 19.1935 14.4057 19.3417C14.554 19.49 14.7551 19.5733 14.9647 19.5733C15.1744 19.5733 15.3755 19.49 15.5237 19.3417C15.672 19.1935 15.7553 18.9924 15.7553 18.7827V9.98562C16.534 9.80583 17.2289 9.3677 17.7269 8.74258ZM3.68761 2.62975C4.05352 2.26383 4.54965 2.058 5.06713 2.05742C5.58461 2.058 6.08073 2.26383 6.44665 2.62975C6.81257 2.99566 7.01839 3.49178 7.01898 4.00927V6.54295C7.01898 7.06061 6.81334 7.55708 6.44729 7.92312C6.08125 8.28916 5.58479 8.4948 5.06713 8.4948C4.54947 8.4948 4.05301 8.28916 3.68696 7.92312C3.32092 7.55708 3.11528 7.06061 3.11528 6.54295V4.00927C3.11586 3.49178 3.32169 2.99566 3.68761 2.62975Z" fill="#333B48"/>
</svg>
