<svg width="16" height="17" viewBox="0 0 16 17" fill="none" xmlns="http://www.w3.org/2000/svg">
<path d="M11.9456 10.0655C11.7729 10.2329 11.6936 10.4749 11.7329 10.7122L12.3256 13.9922C12.3756 14.2702 12.2583 14.5515 12.0256 14.7122C11.7976 14.8789 11.4943 14.8989 11.2456 14.7655L8.29292 13.2255C8.19026 13.1709 8.07626 13.1415 7.95959 13.1382H7.77892C7.71626 13.1475 7.65493 13.1675 7.59893 13.1982L4.64559 14.7455C4.49959 14.8189 4.33426 14.8449 4.17226 14.8189C3.77759 14.7442 3.51426 14.3682 3.57893 13.9715L4.17226 10.6915C4.21159 10.4522 4.13226 10.2089 3.95959 10.0389L1.55226 7.70555C1.35093 7.51021 1.28093 7.21688 1.37293 6.95221C1.46226 6.68821 1.69026 6.49555 1.96559 6.45221L5.27892 5.97155C5.53093 5.94555 5.75226 5.79221 5.86559 5.56555L7.32559 2.57221C7.36026 2.50555 7.40493 2.44421 7.45893 2.39221L7.51892 2.34555C7.55026 2.31088 7.58626 2.28221 7.62626 2.25888L7.69893 2.23221L7.81226 2.18555H8.09293C8.34359 2.21155 8.56426 2.36155 8.67959 2.58555L10.1589 5.56555C10.2656 5.78355 10.4729 5.93488 10.7123 5.97155L14.0256 6.45221C14.3056 6.49221 14.5396 6.68555 14.6323 6.95221C14.7196 7.21955 14.6443 7.51288 14.4389 7.70555L11.9456 10.0655Z" fill="white"/>
</svg>
