<svg width="20" height="20" viewBox="0 0 20 20" fill="none" xmlns="http://www.w3.org/2000/svg">
<path d="M1.05273 5.92116C1.05273 5.55781 1.34728 5.26326 1.71063 5.26326C2.07398 5.26326 2.36852 5.55781 2.36852 5.92116V14.0791C2.36852 14.4424 2.07398 14.737 1.71063 14.737C1.34728 14.737 1.05273 14.4424 1.05273 14.0791V5.92116Z" fill="#333B48"/>
<path d="M17.6316 5.92116C17.6316 5.55781 17.9262 5.26326 18.2895 5.26326C18.6529 5.26326 18.9474 5.55781 18.9474 5.92116V14.0791C18.9474 14.4424 18.6529 14.737 18.2895 14.737C17.9262 14.737 17.6316 14.4424 17.6316 14.0791V5.92116Z" fill="#333B48"/>
<path d="M14.0791 17.6316C14.4425 17.6316 14.737 17.9261 14.737 18.2895C14.737 18.6528 14.4425 18.9473 14.0791 18.9473H5.92122C5.55787 18.9473 5.26332 18.6528 5.26332 18.2895C5.26332 17.9261 5.55787 17.6316 5.92122 17.6316H14.0791Z" fill="#333B48"/>
<path fill-rule="evenodd" clip-rule="evenodd" d="M14.7371 13.9474V6.05264C14.7371 5.61663 14.3836 5.26317 13.9476 5.26317H6.05285C5.61684 5.26317 5.26338 5.61663 5.26338 6.05264L5.26338 13.9474C5.26338 14.3834 5.61684 14.7369 6.05285 14.7369L13.9476 14.7369C14.3836 14.7369 14.7371 14.3834 14.7371 13.9474ZM16.0529 6.05264C16.0529 4.88994 15.1103 3.94738 13.9476 3.94738L6.05285 3.94738C4.89014 3.94738 3.94759 4.88994 3.94759 6.05264L3.94759 13.9474C3.94759 15.1101 4.89014 16.0527 6.05285 16.0527H13.9476C15.1103 16.0527 16.0529 15.1101 16.0529 13.9474V6.05264Z" fill="#333B48"/>
<path d="M14.0791 1.05261C14.4425 1.05261 14.737 1.34716 14.737 1.71051C14.737 2.07385 14.4425 2.3684 14.0791 2.3684L5.92122 2.3684C5.55787 2.3684 5.26332 2.07385 5.26332 1.71051C5.26332 1.34716 5.55787 1.05261 5.92122 1.05261L14.0791 1.05261Z" fill="#333B48"/>
</svg>
