<svg width="20" height="20" viewBox="0 0 20 20" fill="none" xmlns="http://www.w3.org/2000/svg">
<path d="M14.7781 1.81858C15.1012 1.81858 15.3631 2.0814 15.3631 2.40362V16.0487C15.3631 16.622 15.5756 17.0118 15.8852 17.0118H16.4027C16.688 17.0118 16.9248 16.776 16.9248 16.4897V8.4233L16.5197 8.63932C16.2623 8.77703 15.95 8.70232 15.779 8.4791L15.7277 8.3981C15.5756 8.11367 15.6836 7.75905 15.9689 7.60783L17.157 6.97418C17.2047 6.94898 17.2542 6.93098 17.3037 6.92018C17.3667 6.89498 17.4369 6.88238 17.5098 6.88238C17.8329 6.88238 18.0949 7.1434 18.0949 7.46742V16.4897C18.0949 17.4213 17.3343 18.1819 16.4027 18.1819H3.59741L3.4462 18.1756C2.58393 18.0991 1.90527 17.37 1.90527 16.4897V2.40362C1.90527 2.0823 2.16719 1.81858 2.49032 1.81858C2.60193 1.81858 2.70634 1.85008 2.79544 1.90498L2.83595 1.92118L4.53798 2.73305L6.34353 1.87528C6.50194 1.79967 6.68645 1.79877 6.84576 1.87528L8.64861 2.73215L10.4307 1.87708C10.591 1.79967 10.7782 1.79967 10.9375 1.87708L12.7169 2.73215L14.3668 1.92658C14.419 1.90138 14.473 1.88518 14.527 1.87528C14.6026 1.84018 14.6881 1.82038 14.7781 1.82038V1.81858ZM6.59465 3.05167L4.7891 3.90944C4.62979 3.98595 4.44527 3.98595 4.28506 3.90944L3.07537 3.3325V16.4897C3.07537 16.7454 3.26438 16.9614 3.5029 17.0046L3.58391 17.0127H14.3425C14.2417 16.7193 14.193 16.3907 14.193 16.0496V3.31269L12.9762 3.90674C12.8474 3.96975 12.7016 3.98325 12.5657 3.94634L12.4667 3.90854L10.6846 3.05257L8.90333 3.90764C8.74402 3.98325 8.5586 3.98415 8.39929 3.90764L6.59465 3.05167ZM5.09873 10.2486L11.8025 10.2504C12.1265 10.2504 12.3875 10.5124 12.3875 10.8355C12.3875 11.1595 12.1256 11.4205 11.8025 11.4205L5.09873 11.4187C4.7747 11.4187 4.51368 11.1568 4.51368 10.8337C4.51368 10.5097 4.7756 10.2486 5.09873 10.2486ZM5.09873 8.16138L11.8025 8.16408C12.1265 8.16408 12.3875 8.4251 12.3875 8.74913C12.3875 9.07225 12.1256 9.33417 11.8025 9.33417L5.09873 9.33147C4.7747 9.33147 4.51368 9.07045 4.51368 8.74642C4.51368 8.4233 4.7756 8.16138 5.09873 8.16138ZM5.09873 6.09841L11.8025 6.10021C12.1265 6.10021 12.3875 6.36124 12.3875 6.68526C12.3875 7.00839 12.1256 7.27031 11.8025 7.27031L5.09873 7.26851C4.7747 7.26851 4.51368 7.00569 4.51368 6.68346C4.51368 6.35944 4.7756 6.09841 5.09873 6.09841Z" fill="#333B48"/>
</svg>
