<svg width="20" height="20" viewBox="0 0 20 20" fill="none" xmlns="http://www.w3.org/2000/svg">
<path fill-rule="evenodd" clip-rule="evenodd" d="M12.1752 3.37312C12.1752 2.44804 11.4253 1.69812 10.5002 1.69812H2.00019C1.07512 1.69812 0.325195 2.44804 0.325195 3.37312V15.873C0.325195 16.2458 0.627404 16.548 1.00019 16.548H2.31351C2.63088 17.5643 3.57944 18.3019 4.70027 18.3019C5.82111 18.3019 6.76967 17.5643 7.08703 16.548H13.1135C13.4309 17.5643 14.3794 18.3019 15.5003 18.3019C16.6211 18.3019 17.5697 17.5643 17.887 16.548H19.0002C19.373 16.548 19.6752 16.2458 19.6752 15.873V9.87301C19.6752 9.71025 19.6164 9.55297 19.5096 9.43015L15.6859 5.03195C15.5577 4.88448 15.3719 4.79981 15.1765 4.79981H12.1752V3.37312ZM7.12685 15.198C6.85674 14.109 5.87277 13.3019 4.70027 13.3019C3.52778 13.3019 2.5438 14.109 2.27369 15.198H1.67519V12.048H10.8252V15.198H7.12685ZM12.1752 15.198H13.0737C13.3438 14.109 14.3278 13.3019 15.5003 13.3019C16.6728 13.3019 17.6567 14.109 17.9269 15.198H18.3252V10.548H12.1752V15.198ZM12.1752 6.14981H14.8689L17.519 9.19801H14.8471H12.1752V6.14981ZM10.8252 10.698H1.67519V3.37312C1.67519 3.19363 1.8207 3.04812 2.00019 3.04812H10.5002C10.6797 3.04812 10.8252 3.19363 10.8252 3.37312V10.698ZM16.6503 15.8019C16.6503 16.437 16.1354 16.9519 15.5003 16.9519C14.8651 16.9519 14.3503 16.437 14.3503 15.8019C14.3503 15.1668 14.8651 14.6519 15.5003 14.6519C16.1354 14.6519 16.6503 15.1668 16.6503 15.8019ZM4.70027 16.9519C5.3354 16.9519 5.85027 16.437 5.85027 15.8019C5.85027 15.1668 5.3354 14.6519 4.70027 14.6519C4.06515 14.6519 3.55027 15.1668 3.55027 15.8019C3.55027 16.437 4.06515 16.9519 4.70027 16.9519Z" fill="#333B48"/>
</svg>
