<svg width="18" height="18" viewBox="0 0 18 18" fill="none" xmlns="http://www.w3.org/2000/svg">
<path fill-rule="evenodd" clip-rule="evenodd" d="M16.3069 0.578979C16.9369 0.578979 17.4475 1.08959 17.4475 1.71951V4.15498C17.4475 4.7849 16.9369 5.29551 16.3069 5.29551H16.2306V16.2806C16.2306 16.9105 15.72 17.4211 15.0901 17.4211H3.03996C2.41004 17.4211 1.89944 16.9105 1.89944 16.2806V5.29551H1.69326C1.06334 5.29551 0.552734 4.7849 0.552734 4.15498V1.71951C0.552734 1.08959 1.06334 0.578979 1.69326 0.578979H16.3069ZM15.0901 5.32007H3.03996V16.2806H15.0901V5.32007ZM11.4404 7.25897C12.4879 7.25897 13.3416 8.11174 13.3416 9.16102C13.3416 10.2094 12.4879 11.0622 11.4395 11.0622H6.87302C5.82461 11.0622 4.97097 10.2094 4.97097 9.16102C4.97097 8.11174 5.82461 7.25897 6.87302 7.25897H11.4404ZM11.4404 8.3995H6.87214C6.45365 8.3995 6.11062 8.74166 6.11062 9.16102C6.11062 9.57951 6.45278 9.92167 6.87214 9.92167H11.4386C11.8571 9.92167 12.2002 9.57951 12.2002 9.16102C12.2002 8.74166 11.858 8.3995 11.4386 8.3995H11.4404ZM16.3061 1.71951H1.69326V4.15498H16.3069L16.3061 1.71951Z" fill="#333B48"/>
</svg>
