<svg width="20" height="20" viewBox="0 0 20 20" fill="none" xmlns="http://www.w3.org/2000/svg">
<path d="M10.1314 1.95166C5.76687 1.95166 2.21606 5.47827 2.21606 9.81375C2.21606 11.121 2.54106 12.4025 3.16042 13.542L1.99509 16.9823C1.89751 17.2702 1.97009 17.5879 2.183 17.8057C2.33703 17.9638 2.5459 18.0476 2.7588 18.0476C2.84025 18.0476 2.92251 18.0355 3.00316 18.0097L6.62009 16.8613C7.70477 17.3936 8.91122 17.6742 10.1314 17.6742C14.4967 17.6742 18.0483 14.1484 18.0483 9.81375C18.0483 5.47827 14.4967 1.95166 10.1314 1.95166ZM10.1298 16.0621C9.06203 16.0621 8.008 15.7936 7.08219 15.2847C6.96284 15.2194 6.82896 15.1855 6.69429 15.1855C6.61283 15.1855 6.53058 15.1976 6.44913 15.2234L4.03219 15.9904L4.80316 13.7162C4.87977 13.4904 4.85235 13.2412 4.72816 13.0371C4.13864 12.0694 3.82735 10.9549 3.82735 9.81456C3.82735 6.3694 6.65477 3.56537 10.1298 3.56537C13.6056 3.56537 16.4338 6.3694 16.4338 9.81456C16.4338 13.2589 13.6064 16.0621 10.1298 16.0621Z" fill="white"/>
<path d="M13.721 11.4379C13.6766 11.3662 13.5613 11.3218 13.3879 11.2355C13.2137 11.1508 12.3557 10.7315 12.1968 10.6734C12.1274 10.6484 12.0661 10.6283 12.0097 10.6283C11.9355 10.6283 11.8694 10.6621 11.804 10.7597C11.6879 10.9331 11.3532 11.3218 11.2524 11.4379C11.1952 11.5041 11.1363 11.5371 11.0653 11.5371C11.0121 11.5371 10.95 11.5186 10.8758 11.4807C10.7 11.396 10.1387 11.2121 9.4734 10.6242C8.95566 10.1654 8.60566 9.59922 8.50324 9.42584C8.40163 9.25406 8.49276 9.15971 8.58066 9.07422C8.65888 8.99439 8.75405 8.871 8.84276 8.77019C8.92985 8.66939 8.95888 8.59761 9.01614 8.48229C9.0734 8.36697 9.04517 8.26535 9.00082 8.17906C8.95808 8.09277 8.60969 7.24197 8.46292 6.89519C8.35485 6.63713 8.24598 6.60406 8.15566 6.60406C8.12501 6.60406 8.09598 6.6081 8.07017 6.6081C7.97017 6.6081 7.85485 6.59277 7.73711 6.59277C7.62098 6.59277 7.43308 6.63632 7.27259 6.81052C7.11372 6.98229 6.66211 7.40084 6.66211 8.25164C6.66211 9.10326 7.2863 9.92422 7.37501 10.0395C7.4613 10.1557 8.58066 11.9581 10.3516 12.6508C11.3782 13.0524 11.8105 13.1436 12.054 13.1436C12.2315 13.1436 12.3089 13.0952 12.4436 13.0831C12.7621 13.0549 13.4742 12.6637 13.6202 12.2605C13.7653 11.8573 13.7653 11.5097 13.721 11.4379Z" fill="white"/>
</svg>
