<svg width="96" height="34" viewBox="0 0 96 34" fill="none" xmlns="http://www.w3.org/2000/svg">
<path d="M14.776 30.1C12.9304 30.1 12.0077 29.6171 12.0077 28.6512V20.7583L2.84877 5.9592C2.55555 5.459 2.40894 5.07954 2.40894 4.82081C2.40894 4.52759 2.65041 4.30336 3.13337 4.14812C3.63357 3.97564 4.37525 3.8894 5.35841 3.8894H7.29885C8.04053 3.8894 8.6356 3.95839 9.08406 4.09638C9.54976 4.21712 9.87748 4.44135 10.0672 4.76907L15.6816 14.6265L21.3476 4.76907C21.5374 4.44135 21.8651 4.21712 22.3308 4.09638C22.7965 3.95839 23.3916 3.8894 24.116 3.8894H25.746C26.7291 3.8894 27.4622 3.97564 27.9452 4.14812C28.4281 4.30336 28.6696 4.52759 28.6696 4.82081C28.6696 5.16578 28.523 5.54524 28.2297 5.9592L19.0967 20.8877V28.6512C19.0967 29.6171 18.1826 30.1 16.3542 30.1H14.776Z" fill="#0051FF"/>
<path d="M34.0511 30.1518C33.1197 30.1518 32.4211 30.0224 31.9554 29.7637C31.5069 29.505 31.2827 29.1341 31.2827 28.6512V5.39001C31.2827 4.37235 32.2055 3.86353 34.0511 3.86353H35.6552C36.6038 3.86353 37.2938 3.99289 37.725 4.25161C38.1734 4.51034 38.3977 4.8898 38.3977 5.39001V28.6512C38.3977 29.6516 37.4835 30.1518 35.6552 30.1518H34.0511Z" fill="#0051FF"/>
<path d="M85.7962 30.1518C84.8648 30.1518 84.1662 30.0224 83.7005 29.7637C83.2521 29.505 83.0278 29.1341 83.0278 28.6512V5.39001C83.0278 4.37235 83.9506 3.86353 85.7962 3.86353H87.4003C88.349 3.86353 89.0389 3.99289 89.4701 4.25161C89.9186 4.51034 90.1428 4.8898 90.1428 5.39001V28.6512C90.1428 29.6516 89.2286 30.1518 87.4003 30.1518H85.7962Z" fill="#0051FF"/>
<path fill-rule="evenodd" clip-rule="evenodd" d="M45.6817 30.1518C44.9501 30.1518 44.357 29.5587 44.357 28.8271V6.20562C44.357 5.64218 44.7121 5.14284 45.2551 4.99257C47.791 4.29087 55.107 2.43622 59.8115 6.51288C64.5859 1.77388 77.0323 3.54012 77.0323 12.6947V28.8271C77.0323 29.5587 76.4392 30.1518 75.7076 30.1518H71.292C70.5604 30.1518 69.9674 29.5587 69.9674 28.8271V15.5033C69.9674 12.678 68.1102 10.3988 64.761 11.591C64.4325 11.708 64.2271 12.0299 64.2271 12.3786V28.8271C64.2271 29.5587 63.634 30.1518 62.9024 30.1518H58.4868C57.7552 30.1518 57.1622 29.5587 57.1622 28.8271V15.5033C57.1622 12.678 55.305 10.3988 51.9558 11.591C51.6273 11.708 51.4219 12.0299 51.4219 12.3786V28.8271C51.4219 29.5587 50.8288 30.1518 50.0972 30.1518H45.6817Z" fill="#0051FF"/>
</svg>
